<?xml version="1.0" encoding="UTF-8" standalone="no"?>
<!-- Created with Inkscape (http://www.inkscape.org/) -->

<svg
   version="1.1"
   id="svg2"
   width="1452.0667"
   height="620.59998"
   viewBox="0 0 1452.0667 620.59998"
   sodipodi:docname="colour-mkn-logo-print.eps"
   xmlns:inkscape="http://www.inkscape.org/namespaces/inkscape"
   xmlns:sodipodi="http://sodipodi.sourceforge.net/DTD/sodipodi-0.dtd"
   xmlns="http://www.w3.org/2000/svg"
   xmlns:svg="http://www.w3.org/2000/svg">
  <defs
     id="defs6" />
  <sodipodi:namedview
     id="namedview4"
     pagecolor="#ffffff"
     bordercolor="#000000"
     borderopacity="0.25"
     inkscape:showpageshadow="2"
     inkscape:pageopacity="0.0"
     inkscape:pagecheckerboard="0"
     inkscape:deskcolor="#d1d1d1" />
  <g
     id="g8"
     inkscape:groupmode="layer"
     inkscape:label="ink_ext_XXXXXX"
     transform="matrix(1.3333333,0,0,-1.3333333,0,620.6)">
    <g
       id="g10"
       transform="scale(0.1)">
      <path
         d="M 4386.71,3078.63 C 4354.59,3155.41 3848.26,4312.59 2680.9,4499.25 1585.94,4674.33 358.785,3923.67 157.668,2677.07 -40.457,1449.02 852.148,328.52 1979.85,153.84 2860.78,17.3789 3774.66,475.219 4259.59,1311.05"
         style="fill:none;stroke:#1c4068;stroke-width:260;stroke-linecap:round;stroke-linejoin:miter;stroke-miterlimit:10;stroke-dasharray:none;stroke-opacity:1"
         id="path12" />
      <path
         d="m 5277.34,2837.44 v -410.55 h -88.78 v 577.08 h 88.97 l 231.09,-428.46 233.84,428.48 h 86.71 v -577.07 h -88.78 v 409.57 l -230.79,-424.16 -232.26,425.11"
         style="fill:#1c4068;fill-opacity:1;fill-rule:nonzero;stroke:none"
         id="path14" />
      <path
         d="m 6359.93,2627.65 -122.55,231.88 -123.07,-231.88 z m -121.58,399.39 324.2,-600.63 h -95.96 l -66.89,126.84 h -324.94 l -67.67,-126.87 h -97.97 l 329.23,600.66"
         style="fill:#1c4068;fill-opacity:1;fill-rule:nonzero;stroke:none"
         id="path16" />
      <path
         d="m 6643.19,3004.03 h 89.28 v -577.14 h -89.28 v 577.14"
         style="fill:#1c4068;fill-opacity:1;fill-rule:nonzero;stroke:none"
         id="path18" />
      <path
         d="m 6900.2,3003.94 h 88.95 l 355.94,-448.42 v 448.51 h 88.79 v -577.17 h -88.48 l -355.92,447.54 v -447.54 h -89.28 v 577.08"
         style="fill:#1c4068;fill-opacity:1;fill-rule:nonzero;stroke:none"
         id="path20" />
      <path
         d="m 7556.72,2750.73 h 217.94 v -74 h -217.94 v 74"
         style="fill:#1c4068;fill-opacity:1;fill-rule:nonzero;stroke:none"
         id="path22" />
      <path
         d="m 8296.15,2426.89 -309.27,299.5 v -299.5 h -89.28 v 577.14 h 89.28 v -240.79 l 261.38,240.79 H 8373.6 L 8084.9,2744.67 8420,2426.89 h -123.85"
         style="fill:#1c4068;fill-opacity:1;fill-rule:nonzero;stroke:none"
         id="path24" />
      <path
         d="m 8481.98,3004.03 h 89.27 v -577.14 h -89.27 v 577.14"
         style="fill:#1c4068;fill-opacity:1;fill-rule:nonzero;stroke:none"
         id="path26" />
      <path
         d="m 8738.98,3003.94 h 88.94 l 355.95,-448.42 v 448.51 h 88.79 v -577.17 h -88.48 l -355.92,447.54 v -447.54 h -89.28 v 577.08"
         style="fill:#1c4068;fill-opacity:1;fill-rule:nonzero;stroke:none"
         id="path28" />
      <path
         d="m 9745.94,2922.11 h -333.82 v 81.92 h 486.92 L 9545.66,2508.8 h 354.62 l -0.99,-81.91 h -505.58 l 352.23,495.22"
         style="fill:#1c4068;fill-opacity:1;fill-rule:nonzero;stroke:none"
         id="path30" />
      <path
         d="m 10026.8,3004.03 h 89.2 v -577.14 h -89.2 v 577.14"
         style="fill:#1c4068;fill-opacity:1;fill-rule:nonzero;stroke:none"
         id="path32" />
      <path
         d="m 10250.4,2714.7 c 0,166.7 131.2,299.71 307.7,299.71 98.7,0 182.9,-39.93 239.5,-103.29 l -68.3,-53.94 c -40.8,45.74 -101.4,73.56 -171.4,73.56 -124.4,0 -218.8,-93.23 -218.8,-215.89 0,-122.07 95.6,-215.32 220,-215.32 64.8,0 131,28.78 174.6,81.06 v 137.18 h 89.2 v -166.03 c -58.3,-79.86 -154.6,-135.57 -263.6,-135.57 -176.5,0 -308.9,132.41 -308.9,298.53"
         style="fill:#1c4068;fill-opacity:1;fill-rule:nonzero;stroke:none"
         id="path34" />
      <path
         d="m 5166.46,2200.76 h 238.48 l 556.31,-741.47 v 741.47 h 239.51 V 1104.18 h -235.97 l -557.42,740.28 v -740.28 h -240.91 v 1096.58"
         style="fill:#49be71;fill-opacity:1;fill-rule:nonzero;stroke:none"
         id="path36" />
      <path
         d="m 6499.54,2200.76 h 865.37 V 1982.22 H 6739.05 V 1790.4 l 439.45,-1.08 v -211.69 h -439.45 v -254.44 h 627.24 v -219.01 h -866.75 v 1096.58"
         style="fill:#49be71;fill-opacity:1;fill-rule:nonzero;stroke:none"
         id="path38" />
      <path
         d="m 7842.17,1716.49 h 300.71 c 91.06,0 149.03,45.05 149.03,135.11 0,88 -57.97,134.08 -149.03,134.08 h -300.71 z m 420.65,-612.31 -420.65,458.92 v -458.92 h -240.91 v 1096.58 h 522.34 c 253.88,0 413.99,-129 413.99,-349.16 0,-214.23 -129.6,-326.52 -366.99,-334.59 l 412.71,-412.83 h -320.49"
         style="fill:#49be71;fill-opacity:1;fill-rule:nonzero;stroke:none"
         id="path40" />
      <path
         d="m 9155.77,1323.19 c 276.83,0.97 400.49,125.18 400.49,327.12 0,201.95 -123.66,332.16 -400.49,334.56 l -132.72,1.15 v -663.31 z m -372.24,877.57 372.89,1.94 c 393.93,2.06 640.32,-232.04 640.32,-551.94 0,-319.91 -246.39,-546.58 -640.32,-546.58 h -372.89 v 1096.58"
         style="fill:#49be71;fill-opacity:1;fill-rule:nonzero;stroke:none"
         id="path42" />
      <path
         d="m 9950.39,1218.29 129.31,186.75 c 109.6,-63.88 243,-99.64 367.8,-99.37 116.8,0.25 189.7,42.08 194,111.23 4,66.26 -37.6,90.46 -167.4,119.11 l -136,30.02 c -245.1,54.13 -343.53,165.79 -343.92,331.67 -0.41,182.39 185.62,317.46 426.92,317.83 163.6,0.27 321.3,-49.63 434.3,-117.79 l -121,-186.27 c -88.8,52.42 -184.2,87.01 -290.2,87.39 -113.1,0.39 -192.7,-38.35 -192.3,-108.33 0.4,-61.71 47.3,-91.79 155.8,-115.48 l 149.8,-32.69 c 235.2,-51.39 332.7,-151.47 333,-325.48 0.4,-189.62 -181.8,-327.82 -453.7,-328.16 -174.6,-0.21 -360,50.54 -486.41,129.57"
         style="fill:#49be71;fill-opacity:1;fill-rule:nonzero;stroke:none"
         id="path44" />
      <path
         d="m 4350.95,2483.32 c 153.86,0 278.6,-124.73 278.6,-278.6 0,-153.86 -124.74,-278.6 -278.6,-278.6 -153.87,0 -278.6,124.74 -278.6,278.6 0,153.87 124.73,278.6 278.6,278.6 z"
         style="fill:none;stroke:#49be71;stroke-width:260;stroke-linecap:butt;stroke-linejoin:miter;stroke-miterlimit:10;stroke-dasharray:none;stroke-opacity:1"
         id="path46" />
      <path
         d="m 4072.45,2204.72 h -708.4"
         style="fill:none;stroke:#49be71;stroke-width:260;stroke-linecap:round;stroke-linejoin:miter;stroke-miterlimit:10;stroke-dasharray:none;stroke-opacity:1"
         id="path48" />
      <path
         d="m 3364.05,2204.72 -393.1,1150.86"
         style="fill:none;stroke:#49be71;stroke-width:260;stroke-linecap:round;stroke-linejoin:miter;stroke-miterlimit:10;stroke-dasharray:none;stroke-opacity:1"
         id="path50" />
      <path
         d="m 2970.95,3355.58 -586.8,-1073.8"
         style="fill:none;stroke:#49be71;stroke-width:260;stroke-linecap:round;stroke-linejoin:miter;stroke-miterlimit:10;stroke-dasharray:none;stroke-opacity:1"
         id="path52" />
      <path
         d="m 2384.15,2281.78 -581,1062.1"
         style="fill:none;stroke:#49be71;stroke-width:260;stroke-linecap:round;stroke-linejoin:miter;stroke-miterlimit:10;stroke-dasharray:none;stroke-opacity:1"
         id="path54" />
      <path
         d="M 1803.15,3343.88 1072.7,1322.71"
         style="fill:none;stroke:#49be71;stroke-width:260;stroke-linecap:round;stroke-linejoin:miter;stroke-miterlimit:10;stroke-dasharray:none;stroke-opacity:1"
         id="path56" />
    </g>
  </g>
</svg>
