<?xml version="1.0" encoding="UTF-8"?>
<svg id="Ebene_2" data-name="Ebene 2" xmlns="http://www.w3.org/2000/svg" viewBox="0 0 324.75 312">
  <defs>
    <style>
      .cls-1 {
        fill: #054468;
      }

      .cls-1, .cls-2, .cls-3, .cls-4 {
        stroke-width: 0px;
      }

      .cls-2, .cls-5 {
        fill: none;
      }

      .cls-3 {
        fill: #fff;
      }

      .cls-4 {
        fill: #3eb87b;
      }

      .cls-5 {
        stroke: #fff;
        stroke-miterlimit: 10;
        stroke-width: 2px;
      }
    </style>
  </defs>
  <g id="Beschnitt_V02">
    <g id="Logo_V02">
      <path class="cls-2" d="M142.97,228.11v20.89c.48.16.95.32,1.43.48v-20.72c-.48-.21-.95-.43-1.43-.65Z"/>
      <path class="cls-2" d="M66.75,154.86c-2.4.02-4.8.04-7.19.06,0,2.47.05,4.96.2,7.48,1.87,31.4,17.76,61.61,42.28,81.7v-6.55c-23.55-21.25-35.78-51.94-35.28-82.69Z"/>
      <path class="cls-2" d="M102.1,151.42c-.08.38-.21.75-.39,1.09-.57,1.11-1.54,2.02-2.69,2.51-.89.38-1.86.51-2.82.5-1.15-.01-2.32-.23-3.29-.84-.96-.6-1.67-1.57-2.07-2.64-.75-2.02-.44-4.42-.44-6.53,0-2.32-.01-4.64-.01-6.96-.01-3.57-.02-7.14-.03-10.71-.01-3.83-.03-7.67-.04-11.5,0-1.81-.01-3.62-.02-5.42-5.7,10.47-9.38,21.99-10.96,33.8,1.35,0,2.69-.01,4.04-.04,1.7-.03,3.55.29,4.68,1.68.61.74.91,1.7,1.03,2.65.27,2.11-.55,4.56-2.51,5.36-.8.33-1.7.34-2.57.35-1.83.02-3.65.03-5.48.05-.75,22.36,5.89,44.95,20.31,62.68,1.04,1.38,2.11,2.72,3.22,4.03v-50.85c-.81-6.68-.75-13.09.07-19.19Z"/>
      <path class="cls-2" d="M56.03,97.47c-.43.02-.89.17-1.08.55-.11.21-.11.46-.11.7,0,3.82,0,7.65,0,11.47,1.63-4.35,3.5-8.61,5.63-12.78-1.48,0-2.96,0-4.44.06Z"/>
      <path class="cls-2" d="M135.77,137.19c1.12,3.59,2.25,7.17,3.4,10.75.08.25.16.49.23.74,0-7.27,0-14.54,0-21.8v-3.74c0-5.49-.02-10.97-.04-16.46-3.75,2.47-7.25,5.31-10.45,8.47,1.14,3.66,2.28,7.32,3.42,10.98,1.15,3.69,2.3,7.37,3.45,11.06Z"/>
      <path class="cls-2" d="M75.14,97.51c-8.23,13.85-13.62,29.79-15.15,47.33.92,0,1.84-.01,2.76-.02,1.54,0,3.07-.02,4.61-.03,1.78-16.56,7.32-32.83,16.84-47.35-.53.05-1.07.08-1.58.08-2.49,0-4.99,0-7.48-.01Z"/>
      <path class="cls-2" d="M268.1,242.12v10.18h-10.21c-13.23,11.76-29.13,20.88-47.28,26.14-9.83,3.8-14.12-9.54-5.15-13.33,10.54-3.07,20.15-7.43,28.8-12.81h-6.02v-1.51c-.47.27-.95.53-1.43.79v.72h-1.31c-30.58,16.31-68.65,18.29-102.01.18-.11-.06-.22-.12-.33-.18h-9.85c6.19,5.09-.39,15.68-8.07,11.39-38.4-23.69-58.65-66.15-58.51-108.66-.34,0-.69,0-1.03,0-.81,0-1.7-.01-2.31-.54-.86-.73-.88-2.05-.87-3.08.03-4.54.05-9.08.08-13.63,0-.71,0-1.42.01-2.14-6.26,38.85,4.95,78.29,32.58,109.43,26.36,29.7,62.02,45.47,99.45,45.48,16.25,0,32.84-2.97,49.14-9.07,16.84-6.46,32.58-17.04,45.92-30.37v-10.84c-.53.62-1.07,1.23-1.61,1.84Z"/>
      <path class="cls-2" d="M85.11,88.1c.51.06,1.01.16,1.49.35,1.05.41,1.91,1.23,2.43,2.23,1.89-2.44,3.9-4.82,6.04-7.13,5.17-6,12.82-.55,10.66,5.72.41,0,.81,0,1.22,0,2.02,0,4.05.01,6.07.02.96,0,1.93-.01,2.89.01.87.02,1.78,0,2.57-.41.66-.34,1.17-.91,1.56-1.55.97-1.61,1.56-3.65,1.65-5.52.07-1.56-.24-3.15-1.02-4.51-.23-.4-.5-.78-.77-1.16-.42-.59-.84-1.18-1.33-1.7-.37-.39-.79-.75-1.29-.93-.48-.17-.99-.17-1.5-.17-.39,0-.78,0-1.17,0-6.08.02-12.16.01-18.24.01-.6,0-1.24.01-1.89-.02-4.72,4.49-9.07,9.38-12.98,14.66.56,0,1.11,0,1.67,0,.66,0,1.31,0,1.97.09Z"/>
      <path class="cls-2" d="M186.77,234.5c-.53.09-1.07.16-1.61.24v17.56h-30.07c13.36,2.74,27.28,2.78,40.68,0h-9v-17.8Z"/>
      <path class="cls-2" d="M77.24,72.72c-2.37,0-4.74-.01-7.11-.02-3.75,4.77-7.21,9.83-10.36,15.19,2.04.01,4.07.02,6.11.03,3.34-5.29,7.12-10.38,11.36-15.2Z"/>
      <path class="cls-2" d="M120.51,63.11c2.53.35,4.73,1.93,6.61,3.59,1.84,1.63,3.38,3.58,4.53,5.75,1.87,3.54,2.67,7.63,2.28,11.61-.2,1.99-.7,3.98-1.65,5.74-1.08,1.99-2.7,3.63-4.34,5.19-1.02.97-2.06,1.93-3.27,2.65-.3.17-.62.35-.76.67-.14.33-.04.71.07,1.05.43,1.38.86,2.76,1.29,4.14.37,1.2.75,2.39,1.12,3.59,3.99-3.44,8.33-6.46,12.94-9,0-.74,0-1.48,0-2.22-.01-2.59.05-5.41,1.68-7.43,1.49-1.84,4.21-2.58,6.43-1.74,1.13.43,2.11,1.22,2.77,2.22.77,1.15,1.07,2.45,1.18,3.79,10.18-3.53,21.12-4.93,31.99-3.78-1.55-4.93-3.9-9.67-7.44-13.42-.83-.87-1.75-1.71-2.89-2.09-.82-.27-1.69-.28-2.55-.29-8.61-.11-17.23-.31-25.84-.31-1.01-.01-2.05-.03-3.01-.34-1.82-.59-3.21-2.31-3.42-4.22-.03-.27-.04-.54-.02-.81.1-1.63,1.03-3.21,2.45-4.05,2.23-1.32,4.9-.98,7.37-.97,9.27.04,18.54.02,27.81-.07,1.58-.01,3.24-.01,4.64.71.9.46,1.63,1.19,2.32,1.92,2.24,2.39,4.1,5.16,5.96,7.86,4,5.82,7.03,12.3,8.92,19.11,12.69,4.13,24.78,12.12,34.88,24.64,11.8,15.4,16.5,32.06,15.84,47.91h19.73v20.45c.61-2.15,1.15-4.31,1.61-6.49v-13.96h1.9c2.92-47.23-28.64-95-83.41-102.79-3-.67-12.8.33-14.48-3.39-2.84-3.61.12-9.63,4.82-9.3,61.12,1.57,108.21,56.33,104.14,115.48h4.69c3.01-34.85-9.55-71.24-40.33-97.01-43.74-36.31-100.48-32.81-140.04-4.54,3.62,0,7.23,0,10.85,0,.89,0,1.78,0,2.66.12Z"/>
      <path class="cls-2" d="M268.1,211.68v7.86c.55-.82,1.08-1.64,1.61-2.47v-8.22c-.52.95-1.06,1.9-1.61,2.83Z"/>
      <path class="cls-2" d="M226.81,213.33v26.57c.48-.3.96-.6,1.43-.91v-27.16c-.47.5-.95,1-1.43,1.49Z"/>
      <path class="cls-2" d="M197.48,127.36c-1.07,3.89-2.4,7.67-4.43,11.17-1.41,2.43-3.04,4.72-4.75,6.94-1.63,2.12-3.27,4.32-5.19,6.19-1.19,1.16-2.57,2.16-4.15,2.64-1.41.43-2.91.43-4.39.42-1.44,0-2.87,0-4.31-.01-9.18-.03-18.37-.11-27.55.04-1.32.02-3.3-.03-3.31-1.74,0-.21,0-.43,0-.64-.23.58-.56,1.12-.98,1.58-.95,1.05-2.32,1.71-3.74,1.84-2.08.19-4.36-.71-5.54-2.47-.56-.84-.9-1.86-1.27-2.79-.4-1.02-.78-2.05-1.13-3.08-.7-2.05-1.34-4.11-1.97-6.18-.48-1.56-.96-3.13-1.44-4.69-1.09-3.55-2.18-7.1-3.27-10.65-7.27,11-11.33,24.28-10.6,38.62h33.52v55.04c.45-.02.93.04,1.43.18v-55.23h40.76v62.09c.54-.08,1.08-.15,1.61-.24v-61.85h40.04v37.26c.49-.64.96-1.29,1.43-1.95v-35.31h12.65c1.43-22.3-8.58-45.67-34.82-61.13-2.22-1.18-4.46-2.22-6.71-3.12.11.81.21,1.63.29,2.45.81,8.25.03,16.65-2.17,24.64Z"/>
      <path class="cls-2" d="M151.37,122.31c0,6.64-.03,13.28-.04,19.92,0,.24,0,.5.13.71.23.39.76.44,1.21.45,3.42.07,6.83.14,10.25.22,2.28.05,4.56.02,6.85,0,1.89-.02,4.2.31,5.86-.81.87-.59,1.45-1.52,1.99-2.42.96-1.61,1.91-3.24,2.81-4.89,2.62-4.82,4.89-9.9,5.94-15.31,1.09-5.68.58-11.48-.17-17.17-.29-2.21-.62-4.43-1.02-6.62-11.73-1.81-23.32-.22-33.79,3.99,0,2,0,4.01,0,6.01v15.92Z"/>
      <path class="cls-2" d="M112.5,101.37c-.1-.34-.21-.68-.42-.96-.32-.42-.66-.42-1.12-.42-2.4,0-4.8,0-7.2,0-.32,0-.66,0-.94.17-.53.32-.6,1.05-.6,1.68,0,3.13,0,6.26,0,9.39,0,4.04,0,8.09,0,12.13v12.73c0,4.61,0,9.22,0,13.83,0,.33-.01.67-.04,1,1.87-13.14,7.26-24.79,15.01-34.35-1.56-5.07-3.12-10.13-4.68-15.2Z"/>
      <path class="cls-1" d="M269.71,251.11c-13.34,13.33-29.08,23.91-45.92,30.37-16.31,6.1-32.89,9.07-49.14,9.07-37.43,0-73.09-15.78-99.45-45.48-27.63-31.14-38.84-70.57-32.58-109.43.05-8.56.1-17.11.15-25.67.03-4.63.05-9.27.08-13.9.01-1.73-.23-3.43.45-5.08.59-1.42,1.73-2.43,3.21-2.85.74-.21,1.5-.29,2.26-.32.52-.02,1.03-.02,1.55-.01,3.15.02,6.31.04,9.46.05,3.15-5.35,6.61-10.42,10.36-15.19-5.12-.02-10.23-.04-15.35,0-2.56.02-7.36.34-9.95-1.44-1.7,2.65-3.32,5.35-4.86,8.09-.1,11.34-.22,22.68-.37,34.02-.17,12.19-.34,24.38-.51,36.57-.04,2.99-1.02,5.15-4.06,6.07-1.08.33-2.25.46-3.34.17-5.16-1.34-5.71-8.49-7.02-12.68-.95-3.02-1.9-6.04-2.85-9.06-1.63,12.56-1.78,25.48-.34,38.54,5.49,49.73,32.86,92.48,75.08,117.28,24.06,14.4,51.26,21.74,78.8,21.74,17.49,0,35.11-2.96,52.15-8.95,28.69-10.08,53.41-27.77,71.83-50.76h-29.63v-1.18Z"/>
      <path class="cls-1" d="M28.07,114.08c.5-.27.15-3.51.16-4.12,0-1.3.01-2.59.02-3.89-.56,1.71-1.08,3.42-1.58,5.15.26.99.83,3.16,1.41,2.85Z"/>
      <path class="cls-1" d="M70.51,62.85c2.69.04,5.38.07,8.07.09,24.59-25.69,58.57-40.38,96.07-40.5.16,0,.32,0,.48,0,50.56,0,94.86,26.36,118.57,70.57l.23.36c4.73,6.42,11.98,6.55,16.71,3.36,4.31-2.91,7.02-9.19,2.79-16.11C290.54,38.35,249.38,9.7,200.48,2c-48.78-7.67-96.63,6.92-131.24,40.03-6.87,6.41-13.06,13.36-18.55,20.74.23,0,.45,0,.67,0,6.38.02,12.77-.02,19.15.08Z"/>
      <path class="cls-1" d="M317.79,194.22c-2.38-1.02-4.86-1.21-7.14-.69v42.72c5.36-8.72,9.91-18.01,13.54-27.78l.19-.51v-.33c1.41-5.67-1.25-11.14-6.58-13.42Z"/>
      <path class="cls-4" d="M102.03,244.1c-24.52-20.09-40.41-50.3-42.28-81.7-.15-2.52-.2-5.01-.2-7.48-4.28.04-8.55.07-12.83.11-.14,42.51,20.11,84.97,58.51,108.66,7.67,4.29,14.26-6.3,8.07-11.39h-11.28v-8.2Z"/>
      <path class="cls-4" d="M68.99,97.5c-2.83,0-5.68-.08-8.52-.08-2.13,4.17-4,8.43-5.63,12.78,0,.76,0,1.52,0,2.29v26.45c0,1.86,0,3.73,0,5.59,0,.08,0,.18.06.24.07.09.21.1.32.1,1.59,0,3.18-.02,4.77-.03,1.53-17.54,6.92-33.48,15.15-47.33h-6.15Z"/>
      <path class="cls-4" d="M205.46,265.11c-8.96,3.78-4.68,17.13,5.15,13.33,18.15-5.26,34.05-14.38,47.28-26.14h-23.63c-8.65,5.38-18.26,9.74-28.8,12.81Z"/>
      <path class="cls-4" d="M89.44,67.28c0,.11.02.21.02.32.12,2.26-.81,4.2-3.08,4.84-1.05.29-2.15.3-3.24.3-.32,0-.65,0-.97,0-1.64,0-3.28,0-4.92,0-4.24,4.82-8.02,9.9-11.36,15.2,3.06.02,6.12.04,9.18.05,2.14.01,4.27.03,6.41.04,3.91-5.27,8.26-10.17,12.98-14.66-1.17-.06-2.34-.27-3.22-1.02-.58-.49-.95-1.18-1.19-1.9-.27-.82-.37-1.72-.29-2.61.17-1.91,1.17-3.74,3.04-4.46.99-.38,2.07-.38,3.13-.38,3.69,0,7.39,0,11.08,0,39.56-28.27,96.31-31.78,140.04,4.54,30.79,25.76,43.35,62.15,40.33,97.01h13.66c1.89-25.25-3.62-51.26-17.93-74.44C241.94,20.68,143.81,8.64,86.35,63.21c.47.12.91.29,1.32.56,1.14.75,1.66,2.2,1.77,3.51Z"/>
      <path class="cls-1" d="M155.09,252.3h-10.69v-2.81c-.48-.15-.95-.32-1.43-.48v3.29h-19.81c.11.06.22.12.33.18,33.36,18.11,71.43,16.13,102.01-.18h-29.73c-13.4,2.78-27.33,2.74-40.68,0Z"/>
      <path class="cls-1" d="M78.51,154.76c-3.92.03-7.84.07-11.75.1-.5,30.75,11.73,61.44,35.28,82.69v-16.09c-1.11-1.3-2.18-2.65-3.22-4.03-14.42-17.73-21.05-40.32-20.31-62.68Z"/>
      <path class="cls-1" d="M178.54,49.05c-4.7-.33-7.67,5.69-4.82,9.3,1.68,3.73,11.48,2.73,14.48,3.39,54.77,7.79,86.33,55.56,83.41,102.79h11.08c4.06-59.15-43.02-113.91-104.14-115.48Z"/>
      <path class="cls-1" d="M84.2,97.45c-9.51,14.51-15.06,30.79-16.84,47.35,3.1-.02,6.21-.04,9.31-.05.88,0,1.76-.02,2.65-.03,1.58-11.81,5.26-23.33,10.96-33.8,0-1.68-.01-3.35-.02-5.03,0-1.42,0-2.84-.01-4.25,0-2.69-.21-5.43.31-8.1.12-.6.27-1.2.54-1.75.64-1.3,1.94-2.25,3.37-2.46.42-.06.84-.06,1.26-.06,3.33,0,6.65,0,9.98,0,2.16-6.27-5.48-11.72-10.66-5.72-2.14,2.31-4.15,4.69-6.04,7.13.35.67.55,1.41.54,2.17-.05,3.25-2.67,4.33-5.36,4.6Z"/>
      <path class="cls-1" d="M128.9,115.14c3.2-3.16,6.7-6,10.45-8.47-.01-2.86-.02-5.72-.02-8.58-4.6,2.54-8.95,5.56-12.94,9,.78,2.51,1.56,5.02,2.35,7.52.05.18.11.35.16.53Z"/>
      <path class="cls-1" d="M151.38,96.91c0,1.15,0,2.3,0,3.46,10.47-4.21,22.06-5.8,33.79-3.99-.4-2.2-.89-4.37-1.52-6.52-.09-.31-.19-.61-.29-.92-10.87-1.15-21.8.25-31.99,3.78.11,1.39.01,2.83,0,4.2Z"/>
      <path class="cls-1" d="M120.05,125.91l-2.17-7.07c-.23-.76-.47-1.51-.7-2.27-7.74,9.56-13.13,21.21-15.01,34.35-.01.13-.02.26-.04.38,0,.04-.02.07-.03.11-.82,6.1-.88,12.52-.07,19.19v-6.09h7.42c-.73-14.34,3.33-27.62,10.6-38.62Z"/>
      <path class="cls-1" d="M199.36,100.28c2.25.9,4.49,1.93,6.71,3.12,26.23,15.46,36.24,38.84,34.82,61.13h7.48c.66-15.84-4.05-32.51-15.84-47.91-10.1-12.52-22.19-20.51-34.88-24.64.24.88.48,1.77.68,2.66.43,1.86.77,3.75,1.03,5.64Z"/>
      <path class="cls-1" d="M183.49,81.89c-1.63-2.73-3.67-5.18-5.44-7.82-.74-1.11-1.47-2.3-2.6-3.01-1.23-.77-2.75-.88-4.2-.81-7.92.38-15.91.23-23.85.31-1.27.01-2.6.02-3.74-.54-1.15-.55-2.05-1.84-1.73-3.07.42-1.6,2.36-2.04,4.08-2.11.17,0,.34-.01.5-.01,8.38-.02,16.75-.04,25.13-.06,2.77,0,5.66.02,8.09,1.34,1.71.93,3.04,2.43,4.24,3.97,3.2,4.08,5.77,8.64,7.77,13.43,1.02,2.44,1.86,4.94,2.57,7.48,1.11.3,2.23.63,3.33.99-1.89-6.8-4.92-13.29-8.92-19.11-1.86-2.7-3.72-5.46-5.96-7.86-.69-.74-1.42-1.46-2.32-1.92-1.41-.72-3.06-.72-4.64-.71-9.27.08-18.54.1-27.81.07-2.48-.01-5.15-.35-7.37.97-1.41.84-2.34,2.42-2.45,4.05-.02.27-.01.54.02.81.21,1.9,1.6,3.62,3.42,4.22.96.32,2,.33,3.01.34,8.61,0,17.23.21,25.84.31.86.01,1.73.02,2.55.29,1.14.38,2.07,1.21,2.89,2.09,3.55,3.75,5.89,8.49,7.44,13.42,1.11.12,2.23.27,3.34.44-.79-2.61-1.81-5.16-3.21-7.49Z"/>
      <path class="cls-1" d="M149.05,117.79v.42c0,9.14,0,18.28,0,27.42,7.95.21,15.91.14,23.86.12,1.17,0,2.39-.02,3.43-.54,1.1-.56,1.86-1.61,2.55-2.63,3.38-5,6.67-10.47,8.5-16.24.05-.16.1-.33.15-.49,1.7-5.58,2.21-11.46,2.03-17.27-.12-3.83-.48-7.75-1.13-11.59-1.09-.23-2.18-.43-3.28-.6.4,2.2.73,4.41,1.02,6.62.76,5.68,1.27,11.49.17,17.17-1.04,5.41-3.32,10.5-5.94,15.31-.9,1.65-1.84,3.28-2.81,4.89-.54.9-1.11,1.83-1.99,2.42-1.66,1.12-3.97.79-5.86.81-2.28.02-4.56.04-6.85,0-3.42-.07-6.83-.14-10.25-.22-.45,0-.98-.06-1.21-.45-.12-.21-.13-.46-.13-.71,0-6.64.04-13.28.04-19.92v-15.92c0-2,0-4.01,0-6.01-.76.31-1.51.62-2.26.96-.04,1.24-.08,2.48-.08,3.71,0,4.25,0,8.5,0,12.75Z"/>
      <path class="cls-1" d="M142.22,96.1c0-.98.03-1.97.01-2.95-.01-.89-.05-1.86.51-2.6.48-.65,1.31-.95,2.1-1.11.68-.14,1.38-.19,2.05-.05s1.32.52,1.68,1.11c.32.51.4,1.12.46,1.72.04.44.07.88.1,1.32.74-.28,1.49-.56,2.24-.82-.11-1.34-.4-2.64-1.18-3.79-.67-1-1.65-1.79-2.77-2.22-2.22-.84-4.94-.11-6.43,1.74-1.63,2.02-1.69,4.84-1.68,7.43,0,.74,0,1.48,0,2.22.95-.53,1.92-1.04,2.89-1.52,0-.16,0-.31,0-.47Z"/>
      <path class="cls-1" d="M139.39,126.88c0,7.27,0,14.54,0,21.8.19.64.34,1.29.34,1.95,0,.6-.12,1.18-.34,1.74,0,.21,0,.43,0,.64,0,1.71,1.98,1.77,3.31,1.74,9.18-.15,18.37-.07,27.55-.04,1.44,0,2.87,0,4.31.01,1.48,0,2.98,0,4.39-.42,1.58-.48,2.97-1.49,4.15-2.64,1.92-1.87,3.56-4.07,5.19-6.19,1.71-2.23,3.34-4.52,4.75-6.94,2.03-3.5,3.36-7.28,4.43-11.17,2.2-7.99,2.98-16.38,2.17-24.64-.08-.82-.18-1.63-.29-2.45-1.11-.44-2.21-.85-3.32-1.23,1.42,9.62.69,19.52-2.18,28.83-1.2,3.9-2.76,7.68-4.66,11.29-1.45,2.76-3.5,5.16-5.03,7.86-1.28,2.26-3.41,4.02-5.9,4.78-2.26.69-4.68.57-7.04.48-8.44-.31-16.89-.13-25.33-.16-.25,0-3.59-.2-3.65,0v-4.87c0-9.29,0-18.57,0-27.86,0-.83,0-1.66,0-2.5,0-4.01-.01-8.02-.02-12.03-.98.58-1.94,1.18-2.88,1.81.02,5.49.04,10.97.04,16.46v3.74Z"/>
      <path class="cls-3" d="M195.27,94.81c.3,1.4.56,2.82.76,4.24,1.11.38,2.22.78,3.32,1.23-.26-1.9-.6-3.78-1.03-5.64-.21-.89-.44-1.78-.68-2.66-1.11-.36-2.22-.68-3.33-.99.35,1.27.68,2.54.96,3.82Z"/>
      <path class="cls-3" d="M185.17,96.38c1.09.17,2.18.37,3.28.6-.33-1.97-.74-3.93-1.24-5.84-.15-.59-.33-1.17-.51-1.76-1.11-.17-2.22-.32-3.34-.44.1.31.2.61.29.92.63,2.14,1.11,4.32,1.52,6.52Z"/>
      <path class="cls-3" d="M149.12,101.32c.75-.33,1.5-.65,2.26-.96,0-1.15,0-2.3,0-3.46,0-1.37.1-2.8,0-4.2-.75.26-1.5.54-2.24.82.16,2.59.07,5.19-.01,7.78Z"/>
      <path class="cls-3" d="M142.23,104.87c0-.61,0-1.22,0-1.83,0-2.15,0-4.31,0-6.46-.98.49-1.94,1-2.89,1.52,0,2.86.01,5.72.02,8.58.95-.62,1.91-1.23,2.88-1.81Z"/>
      <path class="cls-1" d="M90.34,127.84c.01,3.57.02,7.14.03,10.71,0,2.32,0,4.64.01,6.96,0,2.11-.31,4.51.44,6.53.4,1.07,1.11,2.03,2.07,2.64.97.61,2.15.83,3.29.84.96,0,1.94-.12,2.82-.5,1.15-.49,2.12-1.39,2.69-2.51.18-.34.31-.71.39-1.09.02-.17.05-.33.07-.49.03-.33.04-.67.04-1,0-4.61,0-9.22,0-13.83v-12.73c0-4.04,0-8.09,0-12.13,0-3.13,0-6.26,0-9.39,0-.62.06-1.36.6-1.68.28-.17.62-.17.94-.17,2.4,0,4.8,0,7.2,0,.47,0,.81,0,1.12.42.21.28.32.62.42.96,1.56,5.07,3.12,10.13,4.68,15.2.74-.91,1.5-1.81,2.28-2.69-1.65-5.29-3.3-10.58-4.98-15.85-.06-.17-.12-.36-.27-.46-.13-.09-.3-.09-.45-.09-1.65,0-3.3,0-4.95,0-2.96,0-5.96-.13-8.92,0v1.76c0,4.81,0,9.63,0,14.44v24.71c0,3.95-.07,7.9.04,11.84.02.79-.08,1.64-.56,2.27-.71.92-2.01,1.1-3.16,1.12-.76.01-1.58-.03-2.21-.47-.86-.59-1.13-1.75-1.12-2.8.01-1.42.06-2.82.06-4.24,0-1.44,0-2.87.01-4.31.01-3.53.02-7.06.03-10.59.01-3.98.03-7.95.04-11.93.01-3.77.02-7.55.04-11.32,0-.61,0-1.21,0-1.82-.97,1.56-1.9,3.14-2.77,4.75,0,1.81.01,3.62.02,5.42.01,3.83.02,7.67.04,11.5Z"/>
      <path class="cls-1" d="M123.33,136.56c.48,1.56.96,3.13,1.44,4.69.63,2.07,1.27,4.14,1.97,6.18.36,1.04.73,2.07,1.13,3.08.37.94.7,1.95,1.27,2.79,1.18,1.76,3.47,2.67,5.54,2.47,1.42-.13,2.78-.79,3.74-1.84.42-.46.75-1,.98-1.58,0-1.23,0-2.46,0-3.69-.07-.25-.15-.5-.23-.74-1.15-3.58-2.28-7.16-3.4-10.75-1.15-3.69-2.3-7.37-3.45-11.06-1.14-3.66-2.28-7.32-3.42-10.98-.66.65-1.31,1.32-1.94,2,.99,3.05,2.03,6.09,2.91,9.16,1.86,5.83,3.71,11.66,5.57,17.49.28.88.55,1.76.83,2.63.33,1,.71,1.99,1,3,.18.64.28,1.33.09,1.97-.61,2.06-3.11,2.17-4.73,1.38-.33-.16-.66-.36-.88-.67-.18-.24-.27-.53-.36-.82-.23-.73-.47-1.47-.7-2.2-1.86-5.83-3.74-11.66-5.6-17.49-.95-2.95-1.88-5.91-2.81-8.86-.77,1.03-1.51,2.09-2.22,3.17,1.09,3.55,2.18,7.1,3.27,10.65Z"/>
      <path class="cls-1" d="M104.86,65.68c3.09.03,6.18.1,9.27.18,1.43.04,2.86.09,4.29.09,1.31,0,2.68.1,3.86.74.62.33,1.16.8,1.67,1.3,1.34,1.32,2.52,2.9,3.58,4.45,1.1,1.61,2.04,3.35,2.56,5.24.74,2.69.6,5.55.27,8.32-.05.4-.1.79-.22,1.17-.14.45-.37.88-.62,1.28-1.35,2.26-3.13,4.26-5.21,5.86-.69.53-1.29.84-2.15,1.01-.46.09-.96.25-1.2.66-.12.21-.16.46-.17.71-.06,1.05.27,2.07.59,3.07.62,1.9,1.26,3.79,1.85,5.7.36,1.17.73,2.33,1.1,3.5.68-.63,1.36-1.24,2.06-1.84-.37-1.2-.75-2.39-1.12-3.59-.43-1.38-.86-2.76-1.29-4.14-.11-.34-.21-.72-.07-1.05.14-.31.46-.5.76-.67,1.21-.71,2.25-1.68,3.27-2.65,1.64-1.56,3.26-3.2,4.34-5.19.96-1.76,1.46-3.74,1.65-5.74.4-3.98-.41-8.07-2.28-11.61-1.15-2.17-2.7-4.13-4.53-5.75-1.88-1.66-4.08-3.25-6.61-3.59-.88-.12-1.77-.12-2.66-.12-3.62,0-7.23,0-10.85,0-1.22.87-2.42,1.77-3.61,2.69.49,0,.98,0,1.47,0Z"/>
      <path class="cls-1" d="M96.34,73.37c6.08,0,12.16,0,18.24-.01.39,0,.78,0,1.17,0,.5,0,1.02,0,1.5.17.5.18.92.54,1.29.93.49.52.92,1.11,1.33,1.7.27.38.54.76.77,1.16.78,1.35,1.09,2.95,1.02,4.51-.08,1.87-.68,3.91-1.65,5.52-.38.64-.9,1.21-1.56,1.55-.79.41-1.7.44-2.57.41-.96-.03-1.93,0-2.89-.01-2.02,0-4.05-.02-6.07-.02-.41,0-.81,0-1.22,0-.22.65-.55,1.31-1,1.97-.17.18-.33.36-.5.54,3.81,0,7.63,0,11.44,0,.59,0,1.19,0,1.76-.14,1.97-.49,3.76-2.36,4.86-3.98,1.18-1.73,1.92-3.77,2.09-5.86.16-2.1-.76-3.94-1.83-5.69-1.02-1.67-2.3-3.18-3.78-4.46-.27-.23-.55-.46-.89-.56-.26-.08-.54-.08-.82-.07l-3.8.05c-5.5.07-10.99.13-16.49.14-.78.7-1.55,1.42-2.32,2.15.65.03,1.3.02,1.89.02Z"/>
      <path class="cls-1" d="M95.03,71.21c-.57,0-1.14,0-1.69-.11s-1.09-.36-1.47-.79c-.32-.36-.49-.83-.6-1.29-.12-.52-.17-1.07-.01-1.59.37-1.24,1.44-1.61,2.56-1.71.57-.06,1.16-.04,1.69-.04,1.88,0,3.77-.01,5.65-.01.75,0,1.49,0,2.24.01,1.19-.92,2.39-1.81,3.61-2.69-3.69,0-7.39,0-11.08,0-1.06,0-2.14,0-3.13.38-1.87.72-2.87,2.55-3.04,4.46-.08.89.02,1.79.29,2.61.24.72.61,1.41,1.19,1.9.88.75,2.05.96,3.22,1.02.76-.73,1.53-1.45,2.32-2.15-.58,0-1.16,0-1.74,0Z"/>
      <path class="cls-3" d="M94.48,89.33c-1.43.21-2.74,1.16-3.37,2.46-.27.55-.42,1.15-.54,1.75-.52,2.67-.32,5.4-.31,8.1,0,1.42,0,2.84.01,4.25,0,1.68.01,3.35.02,5.03.88-1.61,1.8-3.19,2.77-4.75.01-3.73.02-7.45.03-11.18,0-.65,0-1.33.29-1.92.25-.52.72-.94,1.27-1.12.27-.09.56-.13.84-.16,1.28-.11,2.6-.02,3.88-.02h4.07c.25,0,.51,0,.76,0,.17-.18.33-.36.5-.54.45-.66.78-1.32,1-1.97-3.33,0-6.65,0-9.98,0-.42,0-.84,0-1.26.06Z"/>
      <path class="cls-3" d="M126.96,117.15c.63-.68,1.28-1.35,1.94-2-.05-.18-.11-.35-.16-.53-.78-2.51-1.56-5.02-2.35-7.52-.7.6-1.38,1.22-2.06,1.84.7,2.22,1.41,4.43,2.12,6.65.17.52.34,1.04.5,1.56Z"/>
      <path class="cls-1" d="M102.18,150.93c-.02.17-.05.33-.07.49,0-.04.02-.07.03-.11.02-.13.03-.26.04-.38Z"/>
      <path class="cls-3" d="M117.88,118.84l2.17,7.07c.71-1.08,1.45-2.13,2.22-3.17-.9-2.82-1.8-5.64-2.69-8.46-.04-.13-.08-.26-.12-.39-.78.88-1.54,1.77-2.28,2.69.23.76.47,1.51.7,2.27Z"/>
      <path class="cls-1" d="M139.4,148.68c0,1.23,0,2.46,0,3.69.22-.55.34-1.14.34-1.74,0-.66-.15-1.31-.34-1.95Z"/>
      <path class="cls-1" d="M79.39,70.35c-1.01,0-2.02,0-3.02.01-1.47,0-2.93.02-4.4.03-.62.76-1.23,1.54-1.84,2.31,2.37,0,4.74.02,7.11.02.7-.8,1.42-1.59,2.15-2.37Z"/>
      <path class="cls-1" d="M83.39,65.13c.32,0,.64,0,.97.02.66-.66,1.32-1.3,1.99-1.94-.87-.22-1.81-.24-2.69-.24-1.69,0-3.39-.01-5.08-.03-.7.73-1.39,1.47-2.07,2.22,2.29-.02,4.58-.03,6.87-.03Z"/>
      <path class="cls-1" d="M45.75,68.97c-.28-.68-.26-1.47.02-2.16.22-.54.6-1.04,1.13-1.28.36-.17.76-.21,1.16-.23.13,0,.27,0,.4,0s.27,0,.4,0c.61-.85,1.22-1.69,1.84-2.53-.99,0-2.03.02-3.01.21-.85.16-1.66.46-2.35.97-1.51,1.11-2.54,2.81-2.19,4.74.21,1.15.83,1.98,1.69,2.57.39-.61.77-1.22,1.17-1.82-.1-.14-.19-.3-.26-.46Z"/>
      <path class="cls-3" d="M54.78,72.69c5.12-.04,10.23-.02,15.35,0,.61-.77,1.21-1.55,1.84-2.31-3.09.02-6.18.04-9.27.04-4.64.02-9.27.05-13.91.07-.47,0-.94,0-1.4-.1-.56-.13-1.06-.49-1.39-.96-.4.6-.78,1.21-1.17,1.82,2.59,1.78,7.39,1.46,9.95,1.44Z"/>
      <path class="cls-3" d="M54.14,65.28c4.57-.02,9.15-.07,13.72-.07.69,0,1.38,0,2.08-.01,2.19-.01,4.39-.03,6.58-.05.68-.75,1.37-1.49,2.07-2.22-2.69-.02-5.38-.05-8.07-.09-6.38-.1-12.77-.06-19.15-.08-.22,0-.44,0-.67,0-.62.84-1.24,1.68-1.84,2.53,1.76,0,3.52-.01,5.28-.01Z"/>
      <path class="cls-1" d="M86.59,65.89c.75.65,1.01,1.78.68,2.72-.23.65-.73,1.2-1.36,1.47-.57.24-1.2.24-1.81.25-1.57,0-3.14.01-4.71.02-.73.78-1.45,1.57-2.15,2.37,1.64,0,3.28,0,4.92,0,.32,0,.65,0,.97,0,1.09,0,2.19,0,3.24-.3,2.28-.64,3.2-2.58,3.08-4.84,0-.11-.01-.21-.02-.32-.11-1.31-.63-2.75-1.77-3.51-.4-.27-.85-.44-1.32-.56-.67.64-1.33,1.29-1.99,1.94.82.05,1.63.21,2.23.74Z"/>
      <path class="cls-1" d="M64.57,90.03c.43-.71.86-1.41,1.31-2.11-2.04-.01-4.07-.02-6.11-.03-.42.71-.84,1.42-1.25,2.15,2.02,0,4.03,0,6.05,0Z"/>
      <path class="cls-1" d="M83.63,89.98c.46,0,.95-.01,1.42.05.58.08,1.12.27,1.53.72.51.58.77,1.33.82,2.1.54-.73,1.08-1.45,1.63-2.17-.52-1-1.38-1.82-2.43-2.23-.48-.18-.98-.29-1.49-.35-.65-.08-1.31-.08-1.97-.09-.56,0-1.11,0-1.67,0-.49.66-.98,1.32-1.46,2l3.62-.02Z"/>
      <path class="cls-1" d="M82.62,97.52c.52,0,1.05-.02,1.58-.08.4-.6.79-1.21,1.2-1.8-.33.04-.66.05-.99.05-2.73.01-5.46.01-8.18.01-.37.6-.73,1.2-1.09,1.81,2.49,0,4.99,0,7.48.01Z"/>
      <path class="cls-1" d="M42.51,151.42c0,1.04.01,2.35.87,3.08.62.53,1.5.55,2.31.54.34,0,.69,0,1.03,0,0-.77.02-1.54.03-2.3-.32,0-.64,0-.96,0-.42,0-.44-.2-.44-.54,0-2.07-.01-4.14-.02-6.21-.01-4.93-.03-9.86-.04-14.79,0-2.77-.02-5.53-.02-8.3-1.11,4.24-1.99,8.5-2.67,12.76,0,.71,0,1.42-.01,2.14-.03,4.54-.05,9.08-.08,13.63Z"/>
      <path class="cls-1" d="M66.81,152.72c-2.41,0-4.83,0-7.24,0-.01.73,0,1.46-.01,2.2,2.4-.02,4.8-.04,7.19-.06.01-.71.03-1.43.06-2.14Z"/>
      <path class="cls-1" d="M54.84,98.72c0-.24,0-.49.11-.7.19-.38.66-.53,1.08-.55,1.48-.05,2.96-.06,4.44-.06.29-.57.58-1.14.88-1.71-1.52,0-3.05,0-4.57,0-.42,0-.84,0-1.26,0-1.12,2.26-2.19,4.54-3.19,6.82,0,3.75,0,7.51,0,11.26v3.75c.75-2.47,1.59-4.92,2.5-7.35,0-3.82,0-7.65,0-11.47Z"/>
      <path class="cls-1" d="M67.36,144.79c-1.54,0-3.07.02-4.61.03-.92,0-1.84.01-2.76.02-.06.71-.11,1.43-.16,2.14,2.44-.02,4.89-.03,7.33-.05.06-.71.12-1.43.2-2.14Z"/>
      <path class="cls-1" d="M83.57,146.82c.59,0,1.19,0,1.74.19,2.11.77,2.48,4.69.27,5.56-.88.35-1.88.21-2.8.2-1.4-.01-2.8,0-4.2-.02-.04.67-.05,1.34-.07,2,1.83-.02,3.65-.03,5.48-.05.87,0,1.76-.02,2.57-.35,1.97-.8,2.78-3.25,2.51-5.36-.12-.95-.42-1.9-1.03-2.65-1.13-1.39-2.98-1.71-4.68-1.68-1.34.02-2.69.03-4.04.04-.09.71-.16,1.42-.24,2.13,1.49-.01,2.99-.02,4.49-.03Z"/>
      <path class="cls-3" d="M45.25,113.53c-.02-6.9-.04-13.81-.07-20.71,0-.52,0-1.05.23-1.51.42-.82,1.43-1.14,2.35-1.16,3.58-.09,7.17-.11,10.76-.12.41-.72.83-1.43,1.25-2.15-3.15-.02-6.31-.03-9.46-.05-.51,0-1.03,0-1.55.01-.77.03-1.53.11-2.26.32-1.48.41-2.62,1.43-3.21,2.85-.68,1.65-.44,3.34-.45,5.08-.03,4.63-.05,9.27-.08,13.9-.05,8.56-.1,17.11-.15,25.67.69-4.26,1.56-8.52,2.67-12.76,0-3.12-.02-6.24-.03-9.36Z"/>
      <path class="cls-1" d="M54.34,95.7c-.49,0-.99,0-1.48,0-.19,0-.41.02-.51.18,0,2.21,0,4.43,0,6.64.99-2.29,2.06-4.56,3.19-6.82-.4,0-.79,0-1.19,0Z"/>
      <path class="cls-1" d="M59.57,152.72c-1.37,0-2.75,0-4.12,0-2.89,0-5.79,0-8.68,0-.02.77-.03,1.54-.03,2.3,4.28-.04,8.55-.07,12.83-.11,0-.73,0-1.47.01-2.2Z"/>
      <path class="cls-1" d="M74.99,90.03h.83c1.39-.01,2.79-.02,4.18-.03.48-.67.97-1.33,1.46-2-2.14,0-4.27-.03-6.41-.04-3.06-.01-6.12-.04-9.18-.05-.44.7-.88,1.4-1.31,2.11,3.48,0,6.95.02,10.42,0Z"/>
      <path class="cls-1" d="M68.99,97.5h6.15c.36-.59.72-1.2,1.09-1.8-4.96,0-9.92,0-14.88,0-.3.57-.59,1.14-.88,1.71,2.84,0,5.69.08,8.52.08Z"/>
      <path class="cls-1" d="M55.22,144.86c-.12,0-.25,0-.32-.1-.05-.07-.05-.16-.06-.24-.01-1.86,0-3.73,0-5.59v-26.45c0-.76,0-1.52,0-2.29-.91,2.43-1.75,4.88-2.5,7.35v13.78c0,5.01,0,10.03,0,15.04,0,.21.02.46.2.58.11.07.24.07.37.07,2.31,0,4.62-.02,6.93-.03.05-.71.1-1.43.16-2.14-1.59,0-3.18.02-4.77.03Z"/>
      <path class="cls-3" d="M71.35,146.9c2.58-.01,5.16-.03,7.73-.05.08-.71.15-1.42.24-2.13-.88,0-1.76.02-2.65.03-3.1.02-6.21.04-9.31.05-.08.71-.14,1.42-.2,2.14,1.39-.01,2.79-.02,4.18-.03Z"/>
      <path class="cls-3" d="M86.23,95.43c-.26.12-.54.18-.83.21-.41.6-.81,1.2-1.2,1.8,2.68-.27,5.31-1.35,5.36-4.6.01-.76-.19-1.5-.54-2.17-.56.72-1.1,1.44-1.63,2.17.01.22.02.44,0,.65-.08.8-.37,1.58-1.15,1.92Z"/>
      <path class="cls-3" d="M66.81,152.72c-.03.71-.04,1.43-.06,2.14,3.92-.03,7.84-.07,11.75-.1.02-.67.04-1.34.07-2-3.92-.02-7.85-.04-11.77-.03Z"/>
      <path class="cls-1" d="M21.58,124.45c-.29-.92-.59-1.85-.88-2.77-1.55-4.86-3.09-9.73-4.64-14.59-1.22-3.85-2.45-7.7-3.67-11.56-.28-.89-.55-1.79-.82-2.68-.18-.58-.35-1.16-.55-1.73-.14-.42-.3-.83-.52-1.21-.05-.09-.12-.19-.21-.25-.11-.07-.26-.07-.39-.05-.11.01-.22.03-.31.1-.15.11-.17.33-.17.51-.06,2.14.05,4.3.03,6.44-.02,2.29-.05,4.58-.06,6.88,0,2.32-.02,4.64-.02,6.96,0,2.29-.01,4.59-.02,6.88,0,2.32-.01,4.64-.02,6.95,0,.9,0,1.8,0,2.7,0,3.05-.03,6.11-.04,9.16,0,3.09,0,6.17,0,9.26,0,1.14,0,2.28,0,3.43,0,.43,0,.88-.03,1.32-.08,1.26-.39,2.51-1.53,3.23-1.46.93-3.43.62-4.55-.69-1.27-1.48-.87-3.62-.88-5.42,0-9.15.07-18.29.11-27.44.04-9.29.08-18.57.12-27.86.03-7.8.09-15.6.05-23.4,0-.92,0-1.85.2-2.75.21-.9.66-1.77,1.4-2.31,1.19-.87,3.43-.92,4.54.15.67.65.9,1.72,1.18,2.58.36,1.1.71,2.2,1.06,3.3.71,2.2,1.41,4.4,2.1,6.6,1.37,4.36,2.71,8.73,4.07,13.08.13.41.26.82.39,1.23,1.56,5,3.13,9.99,4.69,14.99,1.03,3.45,2.1,6.88,3.18,10.31.4-1.54.81-3.08,1.26-4.6-.05-.19-.09-.35-.11-.42-.47-1.47-.94-2.95-1.42-4.42-1.89-5.89-3.77-11.79-5.66-17.68-1.98-6.19-3.96-12.37-5.94-18.56-.88-2.76-1.66-6.58-3.99-8.46-.93-.75-2.12-1.13-3.32-1.16-1.11-.02-2.23.25-3.18.82-.94.56-1.68,1.38-2.25,2.3-.59.95-.52,2.03-.58,3.13-.15,2.89-.16,5.79-.16,8.68C.04,99.37.02,123.28,0,147.19c0,2.06.06,4.41,1.26,6.18,1.32,1.96,3.95,2.8,6.19,2.12,1.38-.42,2.58-1.38,3.3-2.63,1.37-2.4.88-5.59.91-8.25.04-3.09.07-6.18.11-9.26.07-6.18.15-12.35.22-18.53.04-3.02.08-6.04.1-9.06,0-.69.03-1.37.11-2.05.05-.46.4-.29.53.03.42,1.02.73,2.07,1.06,3.12,2.67,8.52,5.36,17.05,8.04,25.59.27-2.1.58-4.2.94-6.28-.39-1.24-.79-2.48-1.18-3.71Z"/>
      <path class="cls-1" d="M30.78,93.66c-.02-6.19-.03-12.37-.05-18.56,0-2.71-.02-5.42-.04-8.14,0-.71,0-1.42.18-2.1.22-.79.71-1.5,1.38-1.98.67-.48,1.53-.71,2.35-.59.82.12,1.59.6,2.02,1.3.51.84.52,1.88.51,2.86-.04,5.96-.08,11.93-.12,17.89,0,.17,0,.35,0,.52.94-1.86,1.93-3.7,2.95-5.52,0-1.01.02-2.03.03-3.04.03-3.45.05-6.9.08-10.34.01-1.48-.11-2.47-.97-3.72-.75-1.09-1.87-1.93-3.15-2.29-1.98-.56-4.24.07-5.66,1.56-2.17,2.29-2.04,5.8-2.03,8.75.04,11.69.02,23.37-.03,35.07,0,.25,0,.5,0,.74.79-2.41,1.65-4.79,2.56-7.16,0-1.75-.01-3.51-.01-5.26Z"/>
      <path class="cls-1" d="M29.92,130.17c.06.19.13.4.27.54.14.14.39.2.55.07.14-.12.16-.33.16-.52-.02-6.13-.04-12.26-.06-18.39,0-4.32-.02-8.63-.04-12.95-.91,2.36-1.77,4.75-2.56,7.16,0,1.3-.01,2.59-.02,3.89,0,.6.35,3.85-.16,4.12-.58.31-1.15-1.86-1.41-2.85-.44,1.53-.86,3.06-1.26,4.6,1.5,4.78,3.03,9.55,4.52,14.34Z"/>
      <path class="cls-3" d="M31.69,156.18c1.09.28,2.26.15,3.34-.17,3.04-.92,4.02-3.08,4.06-6.07.16-12.19.34-24.38.51-36.57.15-11.34.27-22.68.37-34.02-1.02,1.82-2.01,3.66-2.95,5.52-.02,3.83-.05,7.66-.07,11.49-.03,4.35-.05,8.7-.08,13.05-.03,4.32-.05,8.64-.08,12.96,0,9.1-.11,18.2-.16,27.3,0,.23,0,.46,0,.7,0,.43,0,.87-.14,1.28-.16.48-.5.89-.9,1.2-1.47,1.14-3.87.79-4.95-.73-.42-.59-.65-1.3-.87-1.99-2.33-7.32-4.66-14.65-6.99-21.97-.36,2.08-.67,4.18-.94,6.28.95,3.02,1.9,6.04,2.85,9.06,1.32,4.19,1.86,11.35,7.02,12.68Z"/>
      <path class="cls-1" d="M310.65,252.3v-16.04c-3.44,5.59-7.22,10.94-11.3,16.04h11.3Z"/>
      <path class="cls-1" d="M269.71,164.53v13.96c.97-4.62,1.61-9.29,1.9-13.96h-1.9Z"/>
      <path class="cls-4" d="M303.23,199.12l-.22.47c-1.24,3.35-2.62,6.65-4.12,9.9.98.86,1.87,1.86,2.71,2.82,1.97,2.23,3.65,4.8,4.5,7.67.54,1.82.69,3.73.82,5.62.27,4.08.41,8.35-1.32,12.06-.48,1.03-1.1,1.99-1.74,2.93-1.53,2.23-3.3,4.39-5.68,5.66-2.03,1.08-4.39,1.44-6.69,1.36-2.52-.09-5.05-.71-7.18-2.05-2.04-1.28-3.62-3.18-4.8-5.28-3.09,3.77-6.37,7.39-9.8,10.82v1.18h29.63c4.08-5.1,7.87-10.45,11.3-16.04v-42.72c-3,.69-5.68,2.62-7.42,5.59Z"/>
      <path class="cls-1" d="M288.23,239.53c.59.44,1.23.84,1.94,1.01,1.49.36,3.05-.32,4.3-1.2,3.27-2.32,5.35-6.18,5.69-10.17.34-4-1.01-8.07-3.5-11.21-.39-.48-.83-.95-1.29-1.4-3.35,6.29-7.19,12.32-11.42,18.05,1.06,1.93,2.51,3.63,4.28,4.94Z"/>
      <path class="cls-1" d="M301.04,164.53h-18.35c-.08,1.18-.18,2.36-.3,3.55,1.51-.75,3.13-1.25,4.79-1.5,1.44-.21,2.9-.25,4.34-.06,3.32.44,6.48,1.99,8.9,4.31.8.76,1.51,1.6,2.13,2.52,2.17,3.22,3.02,6.91,3.92,10.62.09.37.18.75.22,1.12.07.59.05,1.17-.21,1.69-.45.89-1.51,1.33-2.5,1.37-.72.03-1.48-.13-2.03-.6-.86-.73-1.04-1.96-1.26-3.01-.35-1.66-.93-3.28-1.7-4.8-.57-1.14-1.25-2.22-2.02-3.23-.56-.73-1.18-1.42-1.93-1.94-1.38-.96-3.12-1.29-4.8-1.31-1.29-.01-2.59.15-3.82.56-.08.03-.15.06-.23.09h0c-2.37.88-4.25,2.71-5.49,4.95-.09.41-.16.81-.25,1.22-.42,1.95-.9,3.86-1.42,5.76.06,2.63.83,5.24,2.17,7.51h0c.71,1.19,1.57,2.29,2.57,3.24.74.69,1.55,1.32,2.18,2.11.63.79,1.06,1.81.89,2.81-.1.57-.39,1.09-.77,1.54-.43.51-.99.93-1.64,1.1-1.49.41-3-.53-4.17-1.53-.69-.59-1.32-1.24-1.93-1.91-1.11-1.23-2.09-2.58-2.91-4.02-1.66,4.22-3.57,8.28-5.71,12.18v42.26c3.43-3.43,6.71-7.04,9.8-10.82-.11-.2-.23-.4-.33-.6-1.1-2.13-1.81-4.42-2.4-6.73-.11-.42-.21-.83-.31-1.25-.51-2.1-.94-4.23-.69-6.39.09-.84.3-1.69.8-2.37.53-.72,1.39-1.19,2.29-1.25,1.28-.08,2.57.68,3.02,1.9,0,.01.01.03.02.04.3.85.17,1.79.12,2.69-.16,2.87.54,5.76,1.92,8.27,4.24-5.72,8.07-11.76,11.42-18.05-1.84-1.84-4.08-3.54-5.1-5.86-.47-1.07-.52-2.41.17-3.36.04-.05.07-.1.11-.14.85-.99,2.4-1.2,3.66-.82,1.45.45,2.61,1.54,3.8,2.42.29.22.58.46.86.7,1.5-3.25,2.88-6.55,4.12-9.9l.22-.47c1.74-2.97,4.42-4.9,7.42-5.59v-29.01h-9.61Z"/>
      <path class="cls-1" d="M279.02,185.83c.52-1.89,1-3.81,1.42-5.76.09-.41.17-.81.25-1.22-.79,1.42-1.31,2.99-1.54,4.59-.11.79-.15,1.59-.13,2.39Z"/>
      <path class="cls-4" d="M275.42,196.68c-1.02-1.81-1.81-3.75-2.3-5.77-1.08-4.51-.71-9.36,1.06-13.66,1.1-2.67,2.73-5.14,4.91-7.03,1-.86,2.11-1.57,3.3-2.16.12-1.18.22-2.36.3-3.55h-11.08c-.29,4.67-.92,9.34-1.9,13.96v30.37c2.14-3.9,4.05-7.96,5.71-12.18Z"/>
      <path class="cls-1" d="M244,203.17c-.97-3.35-1.94-6.7-2.91-10.05-.5,1.04-1.03,2.06-1.58,3.07,0,4.5,0,9.01,0,13.51v17.78c0,.93,0,1.86,0,2.79,3.46-3.11,6.64-6.36,9.52-9.75-.35-1.21-.7-2.42-1.05-3.63-1.32-4.57-2.65-9.15-3.97-13.72Z"/>
      <path class="cls-1" d="M256.64,228.04c.14.15.39.22.56.11,0-.41,0-.81,0-1.22-.24.28-.48.57-.72.84.04.1.09.19.16.27Z"/>
      <path class="cls-1" d="M245.13,187.66c1.59,5.62,3.18,11.25,4.77,16.87.63,2.23,1.26,4.47,1.89,6.7.4,1.43.81,2.85,1.21,4.28,1.49-2,2.89-4.04,4.19-6.11v-15.93c0-7.99-.02-15.98.01-23.97,0-.66.01-1.36.34-1.94.32-.58.93-.96,1.56-1.15.75-.23,1.63-.22,2.26.25.87.65,1,1.89,1.03,2.98.14,4.63.04,9.25-.08,13.88-.12,4.51-.05,9.05-.07,13.56,0,1.08,0,2.16-.02,3.25,2.43-5,4.37-10.13,5.86-15.35v-20.45h-19.73c-.3,7.09-1.66,14.02-3.95,20.59.24.85.48,1.69.72,2.54Z"/>
      <path class="cls-1" d="M228.24,199.84c2.14-3.01,4.03-6.19,5.67-9.5.01-4.38.02-8.75.03-13.13,0-1.9,0-3.79.01-5.69,0-1.22.03-2.52.73-3.52.68-.98,2.04-1.49,3.16-1.08.72.26,1.29.84,1.67,1.51.33.58.56,1.23.76,1.89.29-1.92.5-3.85.63-5.79h-12.65v35.31Z"/>
      <path class="cls-1" d="M233.84,219.59c.01-4.85.02-9.71.03-14.56-1.75,2.37-3.63,4.64-5.64,6.8v27.16c1.9-1.24,3.76-2.56,5.58-3.96.03-5.15.02-10.29.02-15.44Z"/>
      <path class="cls-1" d="M262.15,220.71c0,2.31-.01,4.61-.02,6.92-.02,5.73-.04,11.46-.05,17.19,0,.9-.01,1.84-.46,2.62-.65,1.14-2.23,1.63-3.41,1.06-1.04-.5-1.62-1.63-1.94-2.73-.85-2.94-1.69-5.89-2.53-8.85-.45-1.58-.9-3.16-1.35-4.74-4,4.09-8.31,7.83-12.88,11.23.01.74.07,1.52.02,2.27-.04.67-.17,1.32-.48,1.92-.64,1.23-2.24,1.98-3.51,1.41-.73-.33-1.23-1.02-1.51-1.78-1.9,1.24-3.83,2.43-5.8,3.55v1.51h39.86v-40.62c-1.84,3.12-3.83,6.14-5.95,9.03Z"/>
      <path class="cls-4" d="M262.23,200.96c-.03,5.62-.05,11.24-.08,16.86,0,.96,0,1.93,0,2.89,2.13-2.89,4.11-5.91,5.95-9.03v-26.71c-1.49,5.22-3.44,10.36-5.86,15.35v.64Z"/>
      <path class="cls-4" d="M255.56,224.57c.27.97.55,1.94.82,2.91.03.1.06.19.09.29.24-.28.48-.56.72-.84,0-1.92,0-3.83,0-5.75,0-2.28,0-4.57,0-6.85v-4.93c-1.3,2.07-2.7,4.11-4.19,6.11.22.79.45,1.58.67,2.37.63,2.23,1.26,4.46,1.89,6.69Z"/>
      <path class="cls-4" d="M249.02,220.52c-2.88,3.39-6.06,6.64-9.52,9.75,0,2.53,0,5.07,0,7.6,0,1.75,0,3.51,0,5.26,0,.09,0,.18,0,.27,4.56-3.39,8.87-7.14,12.88-11.23-.1-.34-.19-.67-.29-1.01-1.03-3.55-2.05-7.1-3.08-10.65Z"/>
      <path class="cls-4" d="M233.92,246.92c-.24-.88-.22-1.81-.21-2.72.06-3.06.09-6.11.11-9.17-1.82,1.4-3.68,2.72-5.58,3.96v11.79c1.97-1.12,3.9-2.31,5.8-3.55-.04-.1-.09-.21-.12-.31Z"/>
      <path class="cls-1" d="M240.69,191.76c-.06-.22-.13-.45-.29-.62-.15-.17-.42-.27-.62-.16-.24.13-.28.46-.28.74,0,1.49,0,2.99,0,4.48.55-1.01,1.08-2.03,1.58-3.07-.13-.46-.26-.91-.4-1.37Z"/>
      <path class="cls-4" d="M233.91,190.34c-1.64,3.31-3.53,6.49-5.67,9.5v11.99c2.01-2.16,3.89-4.43,5.64-6.8,0-.12,0-.25,0-.37.01-4.77.02-9.55.03-14.32Z"/>
      <path class="cls-4" d="M240.26,170.31c.25.85.45,1.72.68,2.53.47,1.65.94,3.29,1.4,4.94.69,2.45,1.38,4.89,2.07,7.34,2.29-6.57,3.66-13.5,3.95-20.59h-7.48c-.12,1.94-.33,3.87-.63,5.79Z"/>
      <path class="cls-1" d="M190.62,225.35c-.02-6.07-.04-12.15-.06-18.22,0-4.57-.03-9.15-.03-13.72,0-.88.07-1.89.78-2.41.47-.34,1.09-.36,1.67-.36,9.05-.04,18.09-.11,27.14-.19.23,0,.46,0,.69,0,.55,0,1.14-.05,1.69.07.26.06.51.15.74.31.74.5.98,1.47,1.05,2.36.06.85-.06,1.84-.77,2.31-.45.3-1.03.31-1.57.31-8.51,0-17.03,0-25.54,0-.01,0-.07,19.14-.08,21.3,0,2.28-.02,4.57-.03,6.85,12.35-4.2,22.81-12.13,30.49-22.18v-37.26h-40.04v61.85c1.3-.22,2.59-.49,3.86-.79,0-.08,0-.16,0-.24ZM191.64,167.74c.35-.27.77-.4,1.21-.48.1-.02.21-.03.31-.04,1.5-.18,3.03.04,4.54,0,1.48-.03,2.96-.01,4.44-.01h5.36c4.6,0,9.21.03,13.81-.03.42,0,.84-.01,1.24.09.99.25,1.76,1.17,1.83,2.18.07,1.01-.58,2.03-1.53,2.4-.54.2-1.12.21-1.7.21-9.13.04-18.25.09-27.38.15-.63,0-1.3,0-1.84-.33-.69-.41-1-1.26-1.06-2.05-.05-.76.13-1.61.76-2.1Z"/>
      <path class="cls-1" d="M196.28,232.2c0,1.07,0,2.13-.01,3.2-.01,2.68-.02,5.36-.03,8.04,0,.53.18.66.71.66,4.61,0,9.22-.07,13.84-.11,3.01-.02,6.02-.06,9.03-.11,2.38-1.22,4.71-2.54,6.99-3.98v-26.57c-8.42,8.57-18.86,15.18-30.52,18.87Z"/>
      <path class="cls-1" d="M190.79,249.27c-.09-.11-.1-.27-.1-.42,0-2.36,0-4.73-.02-7.09,0-2.68-.02-5.36-.03-8.04-1.28.29-2.58.56-3.88.78v17.8h9c3.61-.75,7.19-1.7,10.7-2.86-5.05,0-10.1,0-15.15,0-.19,0-.41-.01-.53-.16Z"/>
      <path class="cls-1" d="M226.81,252.3v-.72c-.44.24-.87.48-1.31.72h1.31Z"/>
      <path class="cls-4" d="M219.82,243.87c.25,0,.5,0,.75,0,.72-.01,1.47-.02,2.13.26,1.37.56,1.53,2.25,1.32,3.54-.09.55-.26,1.14-.72,1.47-.41.3-.96.31-1.48.31h-15.34c-3.51,1.16-7.09,2.11-10.7,2.86h29.73c.44-.23.88-.48,1.31-.72v-11.68c-2.28,1.43-4.61,2.76-6.99,3.98Z"/>
      <path class="cls-4" d="M196.31,223.96c-.01,2.74-.02,5.49-.03,8.23,11.67-3.69,22.11-10.3,30.52-18.87v-11.54c-7.69,10.05-18.14,17.98-30.49,22.18Z"/>
      <path class="cls-4" d="M186.77,226.38v8.12c1.31-.22,2.6-.49,3.88-.78,0-2.71-.02-5.42-.03-8.13-1.27.3-2.55.57-3.86.79Z"/>
      <path class="cls-1" d="M147.44,221.03v-15.13c0-4.39,0-8.79,0-13.18,0-.43,0-.89.22-1.26.43-.75,1.45-.84,2.31-.84,9.2-.04,18.41-.11,27.61-.08.23,0,.46,0,.69,0,.32,0,.64,0,.96.04.24.03.48.09.7.18,1.06.45,1.23,1.78,1.19,2.79-.02.51-.06,1.04-.34,1.47-.46.71-1.41.91-2.25.88-8.45-.27-16.92-.11-25.37-.09-.05,6.65-.08,13.3-.08,19.95l-.03,7.43c11.37,3.91,22.19,4.83,32.1,3.42v-62.09h-40.76v55.23c.18.05.36.11.54.19.84.39,1.67.73,2.5,1.09ZM147.85,168.71c.33-.96,1.08-1.29,1.92-1.39.48-.06,1-.05,1.49-.05,8.87-.02,17.74-.05,26.62-.07.63,0,1.27,0,1.86.22,1.13.42,1.49,1.65,1.26,2.76-.38,1.83-1.78,1.86-3.32,1.87-1.81.01-3.61.02-5.42.03-7.22.04-14.43.09-21.65.14-.55,0-1.12,0-1.62-.23-1.19-.55-1.54-2.12-1.14-3.27Z"/>
      <path class="cls-1" d="M153.02,232.01c0,.56,0,1.13,0,1.69,0,3.13,0,6.26-.05,9.39-.01,1.09.73.96,1.6.96,1.02,0,2.03,0,3.05,0,6.37-.02,12.74-.14,19.11-.23.78-.01,1.58-.02,2.31.24,1.96.7,2.77,4.56.37,5.26-.49.14-1.01.14-1.52.14-9.21,0-18.43-.03-27.64-.03-.77,0-1.55,0-2.32,0-.2,0-.37-.04-.46-.24-.06-.12-.06-.27-.06-.4-.04-1.54-.04-3.09-.03-4.63,0-.77.02-1.54.03-2.31.01-.77.06-1.54.05-2.31-.02-1.47-.02-2.93-.02-4.4v-5.1c-1.01-.4-2.02-.82-3.04-1.27v23.53h40.76v-17.56c-10.19,1.47-21.05.74-32.13-2.73Z"/>
      <path class="cls-4" d="M147.44,224.42v-3.39c-.83-.35-1.66-.7-2.5-1.09-.18-.08-.36-.14-.54-.19v9.01c1.01.45,2.03.87,3.04,1.27v-5.62Z"/>
      <path class="cls-4" d="M153.06,223.2c-.01,2.94-.02,5.88-.03,8.82,11.08,3.47,21.94,4.2,32.13,2.73v-8.12c-9.91,1.4-20.73.49-32.1-3.42Z"/>
      <path class="cls-1" d="M141.9,227.63c-4.82-1.85-2.9-7.89,1.07-8.06v-55.04h-33.52c.04.77.09,1.53.16,2.3.52,0,1.04.02,1.5.02h4.33c7.18,0,14.36-.01,21.54-.03,1.97,0,5.2.06,4.7,2.93-.32,1.86-1.71,2.31-3.39,2.31-3.53-.02-7.07-.04-10.6-.05-.17,0-.36,0-.49.12-.13.11-.15.3-.16.47-.15,2.32,1.06,6.88-2.18,7.57-.59.13-1.21.07-1.77-.15-.48-.19-.92-.52-1.2-.95-.55-.89-.41-1.94-.38-2.93.04-1.25.05-2.5.02-3.75,0-.1-.01-.22-.09-.28-.06-.05-.15-.06-.23-.06-3.24-.04-6.48-.08-9.73-.14-.38,0-.8,0-1.23.02.33,1.99.74,3.99,1.25,6.01.65,4.96-6.42,6.57-7.86,1.79-.73-3.09-1.25-6.12-1.61-9.11v50.85c5.66,6.67,12.18,12.35,19.31,17.02-.04-5.33-.07-10.65-.11-15.98-.08-9.27-.15-18.55-.23-27.82,0-.7-.09-1.63,0-2.45.04-.39.13-.75.28-1.05.41-.81,1.43-1.21,2.23-1.3,1.12-.13,2.62.3,2.98,1.55.45,1.57.26,3.54.26,5.16-.01,8.07-.02,16.14-.03,24.2,0,4.64-.01,9.27-.02,13.91,0,2.32,0,4.64,0,6.95v.1c5.19,2.93,10.65,5.35,16.28,7.27v-20.89c-.36-.17-.71-.32-1.07-.49Z"/>
      <path class="cls-1" d="M102.03,237.55v14.75h21.12c-7.82-4.13-14.87-9.11-21.12-14.75Z"/>
      <path class="cls-4" d="M142.97,249c-5.63-1.92-11.08-4.34-16.28-7.27,0,1.13,0,2.25,0,3.38,0,.9.19,2.05-.18,2.9-.41.93-1.5,1.32-2.49,1.32-.94,0-1.98-.35-2.39-1.23-.21-.46-.22-.99-.23-1.51-.02-2.71-.04-5.42-.06-8.12-7.12-4.67-13.65-10.35-19.31-17.02v16.09c6.25,5.64,13.3,10.62,21.12,14.75h19.81v-3.29Z"/>
      <path class="cls-4" d="M141.9,227.63c.36.17.71.32,1.07.49v-8.55c-3.98.17-5.9,6.21-1.07,8.06Z"/>
      <path class="cls-4" d="M102.03,170.61c.36,2.99.88,6.02,1.61,9.11,1.45,4.78,8.51,3.17,7.86-1.79-.52-2.02-.93-4.02-1.25-6.01-1.66.03-3.54-.02-4.29-1.61-.34-.71-.3-1.6.14-2.25.57-.85,1.53-1.13,2.54-1.22.32-.03.64-.02.97-.02-.07-.77-.12-1.54-.16-2.3h-7.42v6.09Z"/>
      <g>
        <path class="cls-3" d="M279.93,202.98c1.37,1.17,2.6,1.75,3.75,1.75.3,0,.59-.04.88-.12.69-.19,1.35-.62,1.89-1.26.47-.55.77-1.17.88-1.77.18-1.03-.17-2.17-.99-3.2-.47-.6-1.04-1.1-1.59-1.59-.22-.19-.43-.38-.64-.58-.95-.9-1.79-1.95-2.49-3.13-1.31-2.21-2.04-4.72-2.1-7.27-.02-.8.02-1.57.12-2.3.22-1.53.73-3.06,1.48-4.42,1.25-2.25,3.11-3.93,5.23-4.72l.22-.08c1.08-.37,2.31-.57,3.65-.54,1.87.02,3.39.43,4.52,1.22.6.42,1.16.99,1.82,1.84.74.95,1.4,2.01,1.97,3.15.76,1.51,1.32,3.08,1.66,4.68l.06.29c.21,1.04.46,2.22,1.37,2.99.59.5,1.43.75,2.37.72,1.03-.04,2.35-.49,2.93-1.65.28-.54.36-1.19.26-1.97-.05-.41-.14-.81-.23-1.18l-.1-.39c-.86-3.54-1.75-7.21-3.89-10.39-.63-.93-1.37-1.8-2.2-2.6-2.53-2.42-5.79-3.99-9.18-4.44-1.42-.19-2.93-.17-4.48.06-1.72.25-3.38.77-4.94,1.54-1.28.63-2.42,1.38-3.4,2.23-2.12,1.83-3.87,4.33-5.05,7.21-1.8,4.39-2.19,9.35-1.08,13.96.48,2.02,1.27,4,2.35,5.9.84,1.48,1.84,2.86,2.97,4.11.69.76,1.34,1.4,1.98,1.95Z"/>
        <path class="cls-3" d="M307.41,225.57c-.14-2.05-.29-3.9-.84-5.73-.79-2.65-2.34-5.3-4.6-7.85-.82-.92-1.74-1.97-2.76-2.86-.29-.25-.58-.5-.89-.73-.25-.19-.51-.38-.76-.58-.96-.75-1.96-1.53-3.19-1.91-1.32-.41-3.13-.27-4.19.97-.05.05-.09.11-.14.17-.74,1.01-.83,2.48-.22,3.85.83,1.9,2.42,3.38,3.95,4.82.42.4.85.79,1.25,1.19.37.36.84.85,1.25,1.36,2.48,3.12,3.72,7.08,3.4,10.86-.34,3.95-2.38,7.61-5.48,9.81-1,.71-2.48,1.47-3.89,1.13-.67-.16-1.26-.56-1.76-.93-1.67-1.23-3.1-2.88-4.14-4.78-1.37-2.5-2.02-5.27-1.86-8l.03-.4c.06-.81.11-1.66-.19-2.53-.51-1.39-1.99-2.32-3.52-2.23-1.04.07-2.04.61-2.66,1.45-.49.66-.77,1.49-.9,2.62-.26,2.34.23,4.62.7,6.57.1.42.21.84.31,1.26.49,1.93,1.21,4.45,2.44,6.83.1.2.21.4.34.62,1.34,2.39,3.01,4.23,4.97,5.46,2.05,1.29,4.62,2.02,7.43,2.12.22,0,.44.01.65.01,2.4,0,4.51-.48,6.29-1.43,2.58-1.38,4.41-3.72,5.85-5.82.59-.86,1.26-1.88,1.78-3.01,1.76-3.79,1.64-8.16,1.36-12.3Z"/>
      </g>
      <path class="cls-3" d="M262.9,169.62c-.04-1.3-.21-2.61-1.23-3.37-.69-.52-1.7-.64-2.71-.33-.83.26-1.49.75-1.84,1.38-.4.71-.4,1.53-.41,2.18-.03,5.76-.02,11.52-.02,17.29v39.97s-15.27-54.04-15.27-54.04c-.1-.36-.2-.74-.3-1.12-.12-.47-.24-.94-.38-1.41-.17-.58-.42-1.33-.8-2-.48-.84-1.17-1.45-1.93-1.73-1.3-.47-2.91.07-3.74,1.26-.81,1.16-.81,2.63-.82,3.81l-.11,50.48c0,4.34,0,8.69-.02,13.03-.02,3.06-.05,6.11-.1,9.18-.02.93-.04,1.9.22,2.84.02.09.06.17.09.26l.04.09c.36.98.99,1.71,1.77,2.06.36.16.74.24,1.13.24,1.19,0,2.42-.71,3.03-1.87.31-.6.48-1.27.53-2.12.04-.57.02-1.14,0-1.69l-.03-36.57c0-3.75,0-7.51,0-11.26v-1.79s0-2.68,0-2.68c0-.24.04-.33.02-.25.08.09.14.28.18.43l11.42,39.42.29,1.01c.46,1.58.91,3.16,1.35,4.74l.28.97c.75,2.63,1.49,5.26,2.25,7.88.44,1.5,1.2,2.55,2.21,3.04,1.42.69,3.29.12,4.07-1.26.52-.92.52-2,.52-2.87,0-4.36.02-8.71.03-13.07l.14-34.68c0-1.47,0-2.94,0-4.41,0-3-.01-6.1.07-9.14.12-4.48.22-9.24.08-13.91Z"/>
      <path class="cls-3" d="M222.65,166.92c-.45-.11-.92-.11-1.34-.1-3.5.05-7.06.04-10.5.04h-9.87c-1.08-.01-2.17-.01-3.25,0-.57.01-1.15-.01-1.72-.04-.93-.04-1.9-.08-2.86.03-.11.01-.22.03-.33.05-.57.1-1.02.28-1.37.55-.64.5-.96,1.37-.89,2.4.07,1.06.52,1.91,1.23,2.33.58.35,1.25.38,1.83.38.07,0,.13,0,.19,0,9.12-.06,18.25-.11,27.37-.16.57,0,1.22,0,1.82-.24,1.1-.42,1.84-1.58,1.76-2.75-.08-1.17-.96-2.22-2.09-2.5Z"/>
      <path class="cls-3" d="M222.88,243.66c-.77-.32-1.6-.3-2.33-.29h-.75c-3.01.05-6.02.09-9.02.12-1.54.01-3.08.03-4.61.04-3.07.03-6.15.06-9.22.06h-.02c-.09,0-.15,0-.17,0,0-.03,0-.08,0-.16l.11-29.19c.02-4.85.05-15.54.07-17.94h25.05c.53,0,1.25,0,1.84-.4.74-.5,1.08-1.45.99-2.77-.1-1.31-.52-2.23-1.27-2.74-.27-.18-.57-.3-.91-.38-.5-.11-1-.1-1.48-.08h-1.02c-9.04.09-18.09.16-27.13.2-.57,0-1.35,0-1.96.45-.86.63-.98,1.72-.98,2.81,0,2.29,0,4.58.01,6.86,0,2.29.01,4.57.01,6.86l.11,35.35c0,2.13.01,4.25.01,6.38,0,.17,0,.48.21.73.28.35.71.35.92.35h30.5c.51,0,1.21,0,1.77-.4.63-.46.82-1.24.92-1.79.26-1.55-.03-3.43-1.62-4.08Z"/>
      <path class="cls-3" d="M179.86,167.08c-.66-.25-1.35-.24-1.98-.24l-26.81.08c-.44,0-.9,0-1.34.06-.74.09-1.77.36-2.21,1.63-.45,1.28-.07,3.07,1.32,3.71.52.24,1.08.26,1.59.26h.18l27.07-.17c1.51,0,3.23-.02,3.67-2.16.25-1.2-.11-2.65-1.48-3.17Z"/>
      <path class="cls-3" d="M179.16,243.73c-.8-.29-1.67-.28-2.43-.26l-4.95.07c-4.64.07-9.44.14-14.16.16h-3.31c-.38.01-.74.02-.87-.11-.1-.1-.12-.32-.12-.48.04-3.37.05-6.64.05-9.39v-1.69s0,0,0,0l.06-16.24c0-5.84.02-12.07.08-19.6,1.97,0,3.94-.02,5.91-.03,6.26-.04,12.73-.08,19.09.12.68.01,1.94-.09,2.56-1.04.33-.5.38-1.11.4-1.64.06-1.61-.44-2.72-1.41-3.13-.24-.1-.5-.17-.79-.21-.34-.05-.69-.05-1-.05h-.69c-6.65-.02-13.41,0-19.95.04-2.55.01-5.11.03-7.66.04-.61,0-2.04,0-2.62,1.02-.27.47-.27,1-.27,1.44v42.42c0,1.47,0,2.94.02,4.4,0,.49,0,.98-.02,1.47,0,.28-.02.55-.02.83-.01.77-.03,1.54-.03,2.32-.02,1.77,0,3.24.03,4.64,0,.15,0,.34.09.54.13.29.4.45.78.45h2.32c4.28,0,8.55,0,12.83.02,4.94,0,9.87.02,14.81.02h.13c.49,0,.99-.01,1.49-.16,1.07-.31,1.7-1.2,1.73-2.42.04-1.35-.73-3.03-2.08-3.51Z"/>
      <g>
        <path class="cls-3" d="M141.58,167.67c-.92-1.09-2.78-1.2-4.48-1.2h-.11c-7.18.02-14.36.03-21.54.03h-4.33c-.24,0-.5,0-.77,0-.24,0-.49,0-.76-.01-.33,0-.65,0-.97.02-.85.07-2.08.29-2.81,1.37-.5.74-.56,1.76-.17,2.6.89,1.88,3.22,1.83,4.62,1.81h.29c.33-.01.65-.02.94-.02,2.99.05,5.99.09,8.98.13h.72c.03,1.26.02,2.51-.02,3.73l-.02.39c-.04.92-.09,1.87.46,2.74.31.47.79.86,1.36,1.09.4.16.84.24,1.27.24.24,0,.48-.03.71-.07,2.8-.6,2.63-3.78,2.5-6.1-.04-.67-.07-1.29-.04-1.79.01-.18.04-.23.05-.23.01-.01.09-.04.24-.03l10.6.05c1.43.02,3.34-.26,3.75-2.6.15-.88,0-1.6-.46-2.14Z"/>
        <path class="cls-3" d="M123.47,189.51c-.9.11-2.04.56-2.51,1.5-.16.31-.26.7-.32,1.17-.07.61-.04,1.27-.02,1.85,0,.23.02.44.02.64l.23,27.83c.04,4.84.07,9.69.1,14.53l.07,9.58c0,.5,0,1.11.26,1.65.49,1.06,1.73,1.44,2.72,1.44s2.32-.4,2.81-1.53c.31-.71.27-1.59.23-2.36-.01-.24-.02-.47-.02-.68l.06-48.55c0-.36,0-.73.02-1.11.04-1.35.08-2.88-.29-4.15-.4-1.4-1.99-1.96-3.36-1.8Z"/>
      </g>
      <path class="cls-4" d="M196.04,99.05c-.21-1.42-.46-2.83-.76-4.24-.28-1.29-.61-2.56-.96-3.82-.71-2.54-1.56-5.04-2.57-7.48-2-4.79-4.57-9.34-7.77-13.43-1.2-1.54-2.53-3.04-4.24-3.97-2.43-1.32-5.33-1.35-8.09-1.34-8.38.02-16.75.04-25.13.06-.16,0-.33,0-.5.01-1.72.07-3.66.51-4.08,2.11-.32,1.23.58,2.52,1.73,3.07s2.47.55,3.74.54c7.94-.09,15.93.06,23.85-.31,1.45-.07,2.97.04,4.2.81,1.13.71,1.86,1.9,2.6,3.01,1.76,2.64,3.8,5.09,5.44,7.82,1.39,2.33,2.42,4.89,3.21,7.49.18.58.36,1.17.51,1.76.5,1.91.9,3.87,1.24,5.84.65,3.84,1.01,7.76,1.13,11.59.18,5.81-.33,11.69-2.03,17.27-.05.17-.1.33-.15.49-1.83,5.77-5.13,11.24-8.5,16.24-.69,1.02-1.45,2.08-2.55,2.63-1.04.53-2.26.54-3.43.54-7.95.02-15.91.09-23.86-.12,0-9.14,0-18.28,0-27.42v-.42c0-4.25-.02-8.5,0-12.75,0-1.24.04-2.47.08-3.71.08-2.6.18-5.19.01-7.78-.03-.44-.06-.88-.1-1.32-.06-.6-.14-1.21-.46-1.72-.36-.59-1.01-.96-1.68-1.11s-1.38-.09-2.05.05c-.79.16-1.62.46-2.1,1.11-.56.75-.52,1.72-.51,2.6.01.98-.01,1.96-.01,2.95,0,.16,0,.31,0,.47,0,2.15,0,4.31,0,6.46,0,.61,0,1.22,0,1.83,0,4.01.02,8.02.02,12.03,0,.83,0,1.66,0,2.5,0,9.29,0,18.57,0,27.86v4.87c.07-.19,3.4,0,3.65,0,8.44.03,16.89-.15,25.33.16,2.36.09,4.78.21,7.04-.48,2.49-.76,4.62-2.52,5.9-4.78,1.53-2.7,3.57-5.1,5.03-7.86,1.9-3.61,3.46-7.39,4.66-11.29,2.87-9.31,3.59-19.2,2.18-28.83Z"/>
      <path class="cls-4" d="M137.27,149.43c-.29-1.01-.67-2-1-3-.29-.87-.56-1.76-.83-2.63-1.86-5.83-3.71-11.66-5.57-17.49-.88-3.08-1.92-6.12-2.91-9.16-.17-.52-.34-1.04-.5-1.56-.71-2.22-1.42-4.43-2.12-6.65-.37-1.17-.74-2.33-1.1-3.5-.58-1.91-1.23-3.8-1.85-5.7-.32-1-.65-2.02-.59-3.07.01-.25.05-.5.17-.71.24-.4.74-.57,1.2-.66.85-.17,1.46-.48,2.15-1.01,2.08-1.61,3.86-3.61,5.21-5.86.24-.41.48-.83.62-1.28.12-.38.17-.78.22-1.17.33-2.77.47-5.63-.27-8.32-.52-1.89-1.46-3.63-2.56-5.24-1.06-1.55-2.24-3.13-3.58-4.45-.5-.5-1.04-.96-1.67-1.3-1.18-.63-2.54-.74-3.86-.74-1.43,0-2.86-.05-4.29-.09-3.09-.08-6.18-.14-9.27-.18-.49,0-.98,0-1.47,0-.57.44-1.12.9-1.68,1.35.56-.45,1.11-.91,1.68-1.35-.75,0-1.49-.01-2.24-.01-1.88,0-3.77,0-5.65.01-.52,0-1.11-.01-1.69.04-1.12.11-2.19.48-2.56,1.71-.15.51-.11,1.07.01,1.59.11.47.28.93.6,1.29.37.42.92.67,1.47.79s1.12.11,1.69.11c.58,0,1.16,0,1.74,0h0c5.5-.01,10.99-.08,16.49-.14l3.8-.05c.27,0,.55,0,.82.07.34.1.62.33.89.56,1.48,1.28,2.76,2.79,3.78,4.46,1.07,1.75,1.99,3.6,1.83,5.69-.16,2.09-.9,4.13-2.09,5.86-1.11,1.62-2.9,3.49-4.86,3.98-.57.14-1.17.14-1.76.14-3.81,0-7.63,0-11.44,0-.25,0-.51,0-.76,0h-4.07c-1.29,0-2.6-.09-3.88.02-.29.02-.57.06-.84.16-.55.19-1.02.6-1.27,1.12-.28.59-.29,1.27-.29,1.92-.01,3.73-.02,7.45-.03,11.18,0,.61,0,1.21,0,1.82-.01,3.77-.02,7.55-.04,11.32-.01,3.98-.03,7.95-.04,11.93-.01,3.53-.02,7.06-.03,10.59,0,1.44,0,2.87-.01,4.31,0,1.42-.05,2.82-.06,4.24,0,1.05.26,2.2,1.12,2.8.63.43,1.44.48,2.21.47,1.16-.02,2.45-.2,3.16-1.12.49-.63.59-1.47.56-2.27-.11-3.94-.04-7.9-.04-11.84v-24.71c0-4.81,0-9.63,0-14.44v-1.76c2.96-.13,5.96,0,8.92,0,1.65,0,3.3,0,4.95,0,.16,0,.32,0,.45.09.15.1.22.29.27.46,1.68,5.28,3.33,10.57,4.98,15.85.04.13.08.26.12.39.88,2.83,1.79,5.64,2.69,8.46.94,2.95,1.87,5.91,2.81,8.86,1.87,5.83,3.74,11.66,5.6,17.49.23.73.47,1.47.7,2.2.09.29.18.58.36.82.22.3.55.5.88.67,1.62.8,4.12.68,4.73-1.38.19-.64.09-1.33-.09-1.97Z"/>
      <path class="cls-4" d="M86.59,65.89c-.61-.53-1.41-.69-2.23-.74-.32-.02-.65-.02-.97-.02-2.29,0-4.58.01-6.87.03-2.19.02-4.39.04-6.58.05-.69,0-1.38,0-2.08.01-4.57,0-9.15.05-13.72.07-1.76,0-3.52,0-5.28.01-.13,0-.27,0-.4,0s-.27,0-.4,0c-.4.01-.8.06-1.16.23-.53.25-.91.74-1.13,1.28-.27.69-.3,1.48-.02,2.16.07.16.16.32.26.46.33.47.82.83,1.39.96.46.11.93.11,1.4.1,4.64-.02,9.27-.05,13.91-.07,3.09,0,6.18-.02,9.27-.04,1.47,0,2.93-.02,4.4-.03,1.01,0,2.02,0,3.02-.01,1.57,0,3.14-.01,4.71-.02.61,0,1.25,0,1.81-.25.63-.27,1.13-.82,1.36-1.47.33-.93.07-2.07-.68-2.72Z"/>
      <path class="cls-4" d="M52.34,117.54v-3.75c0-3.75,0-7.51,0-11.26,0-2.21,0-4.43,0-6.64.1-.16.32-.18.51-.18h1.48c.4,0,.79,0,1.19,0,.42,0,.84,0,1.26,0,1.52,0,3.05,0,4.57,0,4.96,0,9.92,0,14.88,0,2.73,0,5.45,0,8.18-.01.33,0,.66,0,.99-.05.29-.03.56-.09.83-.21.78-.34,1.08-1.12,1.15-1.92.02-.22.02-.44,0-.65-.05-.77-.31-1.52-.82-2.1-.4-.46-.95-.65-1.52-.72-.47-.06-.96-.05-1.42-.05l-3.62.02c-1.39,0-2.79.01-4.18.02-.28,0-.56,0-.83,0-3.47.02-6.94,0-10.42,0-2.02,0-4.03,0-6.05,0-3.59,0-7.18.03-10.76.12-.92.02-1.94.34-2.35,1.16-.23.46-.24,1-.23,1.51.03,6.9.05,13.81.07,20.71,0,3.12.02,6.24.03,9.36,0,2.77.02,5.53.02,8.3.01,4.93.03,9.86.04,14.79,0,2.07.01,4.14.02,6.21,0,.34.02.54.44.54.32,0,.64,0,.96,0,2.9,0,5.79,0,8.68,0,1.37,0,2.75,0,4.12,0,2.41,0,4.83,0,7.24,0,3.92,0,7.85.01,11.77.03,1.4,0,2.8,0,4.2.02.92,0,1.92.15,2.8-.2,2.21-.87,1.84-4.79-.27-5.56-.55-.2-1.15-.2-1.74-.19-1.5.01-2.99.02-4.49.03-2.58.02-5.16.04-7.73.05-1.39,0-2.79.02-4.18.03-2.44.02-4.89.03-7.33.05-2.31.01-4.62.03-6.93.03-.13,0-.27,0-.37-.07-.18-.12-.2-.37-.2-.58,0-5.01,0-10.03,0-15.04v-13.78Z"/>
      <path class="cls-4" d="M36.63,63.6c-.43-.71-1.2-1.19-2.02-1.3s-1.68.11-2.35.59c-.67.48-1.16,1.19-1.38,1.98-.19.68-.19,1.39-.18,2.1.02,2.71.03,5.42.04,8.14.02,6.19.03,12.37.05,18.56,0,1.75,0,3.51.01,5.26.02,4.32.04,8.63.04,12.95.02,6.13.04,12.26.06,18.39,0,.19-.01.4-.16.52-.16.13-.41.07-.55-.07-.14-.14-.21-.35-.27-.54-1.49-4.78-3.01-9.56-4.52-14.34-1.08-3.43-2.15-6.87-3.18-10.31-1.56-5-3.13-9.99-4.69-14.99l-.39-1.23c-1.36-4.36-2.7-8.73-4.07-13.08-.69-2.2-1.4-4.4-2.1-6.6-.35-1.1-.71-2.2-1.06-3.3-.28-.86-.51-1.93-1.18-2.58-1.11-1.07-3.35-1.02-4.54-.15-.74.54-1.19,1.42-1.4,2.31-.21.9-.21,1.83-.2,2.75.03,7.8-.02,15.6-.05,23.4-.04,9.29-.08,18.57-.12,27.86-.04,9.15-.11,18.29-.11,27.44.01,1.79-.4,3.94.88,5.42,1.12,1.31,3.09,1.61,4.55.69,1.13-.72,1.44-1.97,1.53-3.23.03-.45.03-.9.03-1.32,0-1.14,0-2.28,0-3.43,0-3.09,0-6.17,0-9.26,0-3.05.04-6.11.04-9.16,0-.9,0-1.8,0-2.7,0-2.32.01-4.64.02-6.95,0-2.29.01-4.59.02-6.88,0-2.32.02-4.64.02-6.96,0-2.29.04-4.58.06-6.88.02-2.15-.09-4.3-.03-6.44,0-.19.03-.4.17-.51.09-.07.2-.09.31-.1.13-.01.28-.01.39.05.09.06.15.15.21.25.22.38.38.79.52,1.21.2.57.37,1.15.55,1.73.27.89.54,1.79.82,2.68,1.22,3.85,2.45,7.7,3.67,11.56,1.55,4.86,3.09,9.73,4.64,14.59.29.92.59,1.85.88,2.77.39,1.24.79,2.48,1.18,3.71,2.33,7.32,4.66,14.65,6.99,21.97.22.69.45,1.4.87,1.99,1.08,1.51,3.48,1.86,4.95.73.4-.31.74-.72.9-1.2.14-.41.14-.85.14-1.28,0-.23,0-.46,0-.7.05-9.1.16-18.2.16-27.3.03-4.32.05-8.64.08-12.96.03-4.35.05-8.7.08-13.05.02-3.83.05-7.66.07-11.49,0-.17,0-.35,0-.52.04-5.96.08-11.93.12-17.89,0-.98,0-2.02-.51-2.86Z"/>
    </g>
    <g>
      <path class="cls-4" d="M90.4,269.83c-2.66,3.57-4,5.35-6.66,8.91-.88-.66-1.32-.99-2.19-1.66,3.83-4.94,5.75-7.42,9.59-12.36.78.61,1.18.91,1.97,1.5-.73,5.26-.99,7.92-1.31,13.32,4.92-2.28,7.3-3.52,11.9-6.15.81.49,1.21.74,2.03,1.22-3.17,5.4-4.75,8.09-7.92,13.49-.93-.55-1.39-.82-2.31-1.39,2.32-3.79,3.47-5.68,5.79-9.47-4.62,2.56-7.01,3.77-11.94,5.98.22-5.42.43-8.1,1.06-13.38Z"/>
      <path class="cls-4" d="M117.04,279.87c.38,7.37.77,11.1,1.98,18.58-1.07-.42-1.6-.64-2.66-1.08-.21-1.58-.31-2.36-.48-3.94-3.49-1.51-5.22-2.32-8.63-4.06-1.34.86-2.01,1.29-3.37,2.12-1.05-.55-1.57-.83-2.61-1.41,6.64-3.77,9.79-5.83,15.76-10.22ZM115.63,291.12c-.28-2.87-.39-4.3-.55-7.16-2.3,1.69-3.48,2.52-5.88,4.13,2.55,1.28,3.84,1.88,6.43,3.03Z"/>
      <path class="cls-4" d="M128.09,285.14c.9.33,1.35.49,2.25.8-2.04,5.92-3.06,8.87-5.1,14.79-1-.35-1.5-.52-2.5-.89,2.14-5.88,3.22-8.82,5.36-14.7Z"/>
      <path class="cls-4" d="M135.91,287.73c.91.27,1.36.4,2.27.65,2.34,5.7,3.68,8.53,6.72,14.12.98-4.76,1.47-7.14,2.45-11.91.92.19,1.38.28,2.31.45-1.16,6.15-1.73,9.22-2.89,15.37-1.03-.19-1.54-.29-2.56-.5-3.14-5.6-4.53-8.44-6.96-14.16-1.3,4.67-1.96,7.01-3.26,11.68-1.02-.28-1.53-.43-2.54-.73,1.79-6,2.68-8.99,4.46-14.99Z"/>
      <path class="cls-4" d="M161.08,299.6c2.4.23,3.61.32,6.02.46-.04.8-.07,1.2-.11,2-2.44-.13-3.67-.23-6.1-.46.08-.8.12-1.2.19-2Z"/>
      <path class="cls-4" d="M191.86,308.11c-3.98-2.82-5.88-4.3-9.48-7.37.17,3.24.25,4.86.42,8.11-1.05.05-1.57.08-2.62.11-.22-6.25-.32-9.38-.54-15.63.94-.03,1.41-.05,2.35-.1.13,2.61.2,3.91.34,6.52,2.75-2.76,4.06-4.17,6.54-7.05,1.32-.13,1.97-.21,3.29-.38-2.67,3.17-4.09,4.73-7.08,7.76,3.95,3.18,6.04,4.7,10.41,7.58-1.44.2-2.17.29-3.62.45Z"/>
      <path class="cls-4" d="M196.36,291.72c.93-.15,1.4-.23,2.33-.39,1.09,6.16,1.63,9.24,2.72,15.41-1.04.18-1.56.27-2.59.43-.98-6.18-1.47-9.27-2.45-15.45Z"/>
      <path class="cls-4" d="M204.4,290.21c.92-.2,1.38-.31,2.3-.53,4.8,3.85,7.35,5.68,12.75,9.09-1.45-4.64-2.18-6.96-3.63-11.6.9-.28,1.35-.43,2.25-.73,1.97,5.94,2.96,8.91,4.93,14.85-1,.33-1.5.49-2.5.81-5.48-3.37-8.08-5.18-12.97-9,1.13,4.72,1.69,7.08,2.82,11.8-1.03.24-1.54.36-2.57.59-1.35-6.11-2.02-9.16-3.37-15.27Z"/>
      <path class="cls-4" d="M232.07,283.35c-3.33,1.5-5.01,2.19-8.41,3.47-.31-.83-.47-1.25-.78-2.08,4.88-1.83,7.28-2.86,12.01-5.16-1.07,6.5-1.8,9.77-3.64,16.31,3.87-1.57,5.78-2.42,9.56-4.26.38.8.57,1.2.95,2.01-5.46,2.67-8.25,3.86-13.9,5.95,2.07-6.49,2.91-9.75,4.21-16.23Z"/>
      <path class="cls-4" d="M239.22,277.36c.85-.46,1.28-.69,2.13-1.16,3.04,5.47,4.56,8.2,7.6,13.67-.94.53-1.42.78-2.37,1.29-2.94-5.52-4.41-8.28-7.36-13.81Z"/>
      <path class="cls-4" d="M249.8,280.36c-2.34-3.87-1.13-8.77,2.86-11.53,2.23-1.55,4.73-2.07,7.04-1.68-.26.94-.39,1.4-.67,2.34-1.67-.3-3.48.09-5.09,1.21-2.86,1.98-3.74,5.5-1.96,8.31,1.76,2.8,5.55,3.42,8.65,1.27,1.62-1.12,2.79-2.94,2.99-4.86-.89-1.19-1.34-1.79-2.23-2.98.84-.63,1.25-.94,2.08-1.59,1.1,1.42,1.66,2.13,2.76,3.56-.07,2.79-1.56,5.81-4.32,7.73-4.46,3.1-9.79,2.08-12.12-1.77Z"/>
    </g>
    <rect id="Rechteck_Outline_T" class="cls-5" x="100.99" y="163.72" width="42.9" height="89.43"/>
    <rect id="Rechteck_Outline_E" class="cls-5" x="143.77" y="163.72" width="42.9" height="89.43"/>
    <rect id="Rechteck_Outline_E-2" data-name="Rechteck_Outline_E" class="cls-5" x="186.18" y="163.72" width="41.53" height="89.43"/>
    <rect id="Rechteck_Outline_N" class="cls-5" x="227.72" y="163.72" width="41.08" height="89.43"/>
    <rect id="Rechteck_Outline_S" class="cls-5" x="268.88" y="163.72" width="42.59" height="89.43"/>
  </g>
</svg>